<mxfile host="app.diagrams.net" modified="2024-06-03T14:33:33.861Z" agent="Mozilla/5.0 (Windows NT 10.0; Win64; x64) AppleWebKit/537.36 (KHTML, like Gecko) Chrome/121.0.0.0 Safari/537.36" etag="PL71CdmoEwxY7EpQOYSM" version="24.4.13" type="device">
  <diagram name="PÃ¡gina-1" id="p9z9TKX6NBa6n19w9ccq">
    <mxGraphModel dx="1434" dy="1951" grid="1" gridSize="10" guides="1" tooltips="1" connect="1" arrows="1" fold="1" page="1" pageScale="1" pageWidth="827" pageHeight="1169" math="0" shadow="0">
      <root>
        <mxCell id="0" />
        <mxCell id="1" parent="0" />
        <mxCell id="bpk7fHlp-owrhIttHWPi-1" value="" style="rounded=1;whiteSpace=wrap;html=1;direction=south;" parent="1" vertex="1">
          <mxGeometry x="191.13" y="270" width="288.87" height="540" as="geometry" />
        </mxCell>
        <mxCell id="bpk7fHlp-owrhIttHWPi-2" value="" style="shape=image;verticalLabelPosition=bottom;labelBackgroundColor=default;verticalAlign=top;aspect=fixed;imageAspect=0;image=data:image/png,iVBORw0KGgoAAAANSUhEUgAAAL4AAACUCAMAAAAanWP/AAAAY1BMVEX///8AAAAEBAT6+vrs7Ozp6en39/fR0dHz8/MnJyfv7+/Hx8c+Pj5fX1/ExMS5ubnZ2dlTU1NwcHDf39+Li4tra2sUFBSampo0NDRGRkaEhISvr68uLi6jo6NLS0sbGxt6enqxsgbYAAAGvUlEQVR4nO1c2bLaMAy92RPIvi+E5P+/soRyqWU7kEVyygznrTO9ysGWtVnyz88XX3zxxRdfrIZtxecw6rouikInc4+mswZZlxfJ1a89b7jBu/hNEoy9YxzNawFOUVGWmgx62VTZ0fRewbW6q5Q58xtyxzyaphxWNL7h/hfXLv7/1Mjqg0XkJ/j5+Wi6EG71Tmsg6tQ5mjKDzl9FfsIw2kezfiBet/K/KLv/4QeY/SbyE4rjNcgpbtZwK/9LdzD7qN689ne01pHsc7mDXYrbtgUHOmLZmZ00SfcuTdufY8u1XTNzojyovbkfWh7lA6xEqvZlIgvPsqgNZhQtPIL8Tya42em3+G03p87uuUo02S8+gr8lCxLqPn5pzLOokPzVEKki/YSRSHj05ttgzD034qZ5ytff5yloWr4wpwpF9RkUn18xNl7hQu3WE7QuJiQroOcXsKxWBTChYLQShelwyK9es/bwZdz26dpIwHPm2/yxDdZvvV3x+qMq/rFbnv2m9LXjpPiK1D/ivptuTF2jAapPoUT9T5ziF5sldTAO0pWoD6c6wWm7KC7TaRREzzFcsmSPxhrc+e3RWM4CBi073b3Bhdzk2h9Bzd+rricmiNZ1LUXhOA+DcTc3tznurpeFA3C/xMvvgJTD23/W7BzsZo7AcR7cWcOwdBlQf5+0gJuBOLlGKbWCFSlJjQ90uEhVJrAklK7XBgliivQlsCYXwsTLAouP9iEQ+1RYUkWAILFAc/EgdkjpDi+I8/EOmQm0hy5uZj/j45WHDZB6kVVNHLDJiIJDVnBOVfZnLbSOaaCBO0l2ROAvwZpNVBV1gfZQRf1sfaxGlQxsD9Gdi8WGa9tTRBkiNgciOruguoObl4LbvRZV9BMgs8a1ziabwwWoop+o6PIKYPk9VNFPgMQCWTZbvtCRZT8wEtIHS0Pjt1j6F2TZoGRNQz9lvtAgy+5Zs0Djdln6V2TZHRvz04TMLP0EWbZi+j6ybKA89Ed3QJYNyg009EFpGVk2MJw0rW6q3Ba27AdA0IAblNvsucKNxZ8Alzm498igw4AoZDuzATNuOcZhs0WigNn0yZYoYvWSqs7G5hQ45dlfgGSRqtDD5hQepvKf2JM7UKXqYI0wlT9mT1VAVWOOWfoFom8ENeaKrEGb/UqNpz2w7k7X2gMuRfG0J2PFNnQlWlCLTNA6MEHE0NJdr5zAjTpWOclmhVL2xcBKNlYtFQTLDWVb9hksFM7ymxdWJum9Omze1FHUFGg+cUsnbGHBuAM/g3v6K+1IQswUyXWt3K+oJuxQoW6JaVn6CA6+hx2RGBRfIYbts3tjczYO0UkvdR/gesH2mekTuJHWPPp5NNMDC3bZE6K4XD+5ik5yvn9ue4zC9fJoBdWdIgvY+q5r/tb0wq5gGzNiDPsKIOy/4bqNP99GuE8PV0Bo391i/k98K7Ei3b+d3pRrX6/Xf1c6O6KikfPnbvyh2g5rM7zzzJzjujGArQiFKax0TfJiV8L4xC+WTpDsgzhnWS/f+Dh5MeWYqrCeP5zJvo9sLXsLwH0zEx4oGWOUkSicd1tvZMLYiwBfxRijKV3EMXq1dnaYL5kwrVXM8Z6k/PUgD2e016nGuRPL7UitYgxNmGF5wGuKnl8/K2qTWq42TSjOMXpKHNirOW8vaPsoDMOoy1P/hb4XFiwfPTZDiQOLLjtGvaeGfa2dNC0aRCl0pU4GzvLHJWTwujtJo5McilzFayCWMD62AsFvjGn0kmHqUYUDMJyL+OVlqP7xM2THSI0Dc3PJp9+DmzmSCanVvCaTpbMh2AxKXzCNUjei6B2Bc7pKhYJejC4mNwLtz+1fpaI5aiNsF784kcqn8aVu/GGb6GFnb99GmjC0zlxIzNdN/v7/XtljRG787tmMInw5jS99KId2GIqD1QX1ZRA4lF6d5O8jSakCYrduvUMWVW0RBEnT+H5zTYJizDtnURZrCe8nTJFFccBzXK6ZxY7jxLF1WqG9wiD5HRumyQ9CLDxDMYHwuhQZmdQFep/DX269jnlIZgNmgkBVDmw3Qqn9HNSU4BAgf/KqzD9l/TvR8U2gHgZHw0wVIPmU9ZclobqiEhwGcnkJ43r8U3rLUMn461rzIQ7AmMmh1b9ktRHyKirVdAg+Uhl/9QnAZsiLeN6nHF9T+l6mTt+6gQRLlr5r49G0FkOafm19T+oA3NJfQX3Go0mtQCamj0prJ3vh8OUf1O57evD8iaZbyBDC9PFTos4nQPp49PPHG/DvEk28GfgE2H16rS9NUR36cvMOnGLnHH9KsPnFF1988TH4A3yhS5GDYg1sAAAAAElFTkSuQmCC;" parent="1" vertex="1">
          <mxGeometry x="212.37" y="323.2" width="38.51" height="30" as="geometry" />
        </mxCell>
        <mxCell id="bpk7fHlp-owrhIttHWPi-3" value="&amp;nbsp; Larissa Gomes&amp;nbsp; &amp;nbsp; &amp;nbsp; &amp;nbsp; &amp;nbsp; &amp;nbsp; &amp;nbsp; &amp;nbsp; &amp;nbsp; &amp;nbsp; &amp;nbsp; &amp;nbsp; &amp;nbsp; &amp;nbsp;&amp;nbsp;" style="rounded=1;whiteSpace=wrap;html=1;" parent="1" vertex="1">
          <mxGeometry x="202.37" y="528.13" width="249.5" height="30" as="geometry" />
        </mxCell>
        <mxCell id="bpk7fHlp-owrhIttHWPi-4" value="&lt;b style=&quot;&quot;&gt;&lt;font style=&quot;font-size: 13px;&quot;&gt;lista de clientes&amp;nbsp; &amp;nbsp; &amp;nbsp; &lt;/font&gt;&lt;span style=&quot;font-size: 15px;&quot;&gt;&amp;nbsp; &amp;nbsp; &amp;nbsp; &amp;nbsp; &amp;nbsp; &amp;nbsp; &amp;nbsp; &amp;nbsp; &amp;nbsp;&lt;/span&gt;&lt;/b&gt;" style="rounded=1;whiteSpace=wrap;html=1;" parent="1" vertex="1">
          <mxGeometry x="202.37" y="385" width="249.5" height="30" as="geometry" />
        </mxCell>
        <mxCell id="bpk7fHlp-owrhIttHWPi-6" value="" style="shape=image;verticalLabelPosition=bottom;labelBackgroundColor=default;verticalAlign=top;aspect=fixed;imageAspect=0;image=data:image/png,iVBORw0KGgoAAAANSUhEUgAAASAAAACvCAMAAABqzPMLAAAAilBMVEX///8AAAD29vb7+/v09PT5+fnMzMwRERHx8fGBgYGFhYXo6Oju7u7i4uJhYWGtra29vb3S0tLd3d3IyMiioqJFRUV0dHSbm5uSkpKzs7MiIiI+Pj7X19fe3t4KCgonJydpaWkwMDBOTk4aGhpZWVk1NTV5eXmOjo5aWlpmZmYsLCy5ubkdHR1CQkK3Z/yxAAAQCklEQVR4nO1dC3eqOBAmL0XBqtX6qlVra+21t///7+1MQEUIIS/be/bw7Z7tvVvIhC+TeYQwiaIWLVq0aNHi/wv22x34x5Em/zxDafqLXRTJP08Q/c0uCpqKXxNuBsFT+nvCKfs94WZgjP3eEDIq/wnTUoBWVA0LAA/RuHDgGdihzOXGMrhgNOaUxv5NlUCjOEgXBRXQQw7/WtwDl8MIBRgdHlFgGp8j8IQVlAoWoos4U2RTwtym4LDENAqgvlzyAvYMGgvKEHRRcBH56yXwI/C/MIrGVheu5MBpHHlbD17Qm6AMgepwBnODWUwLNQqsMNMu8iiFKznlvgTxm/7zyPtpLkD1hiHH6evVzq3WGOoQj9FggOTYl5+MkYsv5iEmbdZiLH1IJFK/hgTNOsfyfuHcab5HTm4eeXvQbH5xfvXF3H9GIIAbdIqSJK+GYKIiPzEoYt6xZoYE2h54KOZt/nJ+5J/phaEAdggcDsww7hS93DaU6U/Wpfx50bRpb0LTZ2Gu6kEz/8XOf8ub9ydIumVo0d+kZQ+Z88EuP3VdBNVF8wz+yzvAyFo4C7v89CaIQYooUIG8XUhOxVlh8p4xnWrAHRQsBvoIP9koj5UJgnAsgGJSFqMFiv27WCKIR3kX66eYQAuF2hsiQM1ClCtB0DhQ5vtU0kTKLgbI8DKnfu2iTK50John4TY4sSAZIEo+i8sDDO8JFgvUcmA/RAYsigTlU0uj4piR4MSAPCxItCKktkijw3jmcXz5kV3EtI4GCagyP5IFZyILGXQmIGbguxiaiSD8nINSEccpz2yzZ1QnnwinKQ2U+NI8PqRxHDfzI/0OZvxB5tfZBuUth5lfEdofTLwDrTDRgr3J+Km3P2CWGf4+9vfvV5FnhgLZn8wr0lAqjhb/Ems28oPzQOCTBMqWEJfEIjNGnq0xDhOB4aiH66IQZ66RGp19jnFJJKYYQYcSHl3T92vK4Q7ZRczAeMgu0lyH0Bjp+aE0zfoQFDE7K49vZgejR3F9LPTCLRU0j0Z09lk6GVxeCbdec5YvGQqQoqYYNOAKTOgxzHRIUG2KKpedRBxwcl+bRu0M4L9iSVAcJv65gUBD1LBQBgpE49R/gVUFrs/+jJuh6Efu0kWZA+m7COlfJDyEM5pMltP5fLGYz6fLTnLTEo9DRHU8zsJEE+m2bUP013SPwDU1t9mdTBa7V1LCYbeYJE7N1QJcvGJ9I5kcldLH3kF7CSJ2yr/Gi33Wp+eHj/5iPp3OF/2Pz0P2//bzccgu8koXO8eL9N5VesbXZj9fh5TushPosb/CrnwvRoNbDWVssDw+4++2x0Gg/kXXdZsM6/5flPC0GCUl1RcgXY7RaRFQui3EFzKw7U/qL5n0tsjf6A52lS6RgVeNdDb6QAL3o/DCTcDnIH3Vb5pCbPzxBgM5DfzSOZ2/4dg0Su98bIDF4c9vIGJTmFvPS6Ookg9hrFfDkNLnXZhZX0akx9NXpCigdBOMkJ6O+fUTmIyvmqloKR10d29h/UdA0SGot2hA8gn0WD7u6ETIQ5AsKtnbDQ7iCyiahXb7tRiCB3VQ2SkYzC9/6dDM29L6LjYnpPsz1pruCPnjNBjJAwyjZ6LJsQ0nRUzeCfnwE26Ex5WHHoDubb2i60fQQmc9AOmHwLF9FSPwHh5zefDs8YDyEfc+0sESBfMUasx91ZTNCJm63rwgpO8lXYB5uKvDP3o83RnwlAu3Oz8CPN0iwBPUo+c1P86AeXJ0uW8WZH6AE5z7t6JGL9AMHjkxBPpjGfyosbwbQ4tgFm7koOd9QgLFwss72aFhkPmVYWkdKkwD+p9pwCe5YhKUd+ij1VrWJEgQfgbMhcdwrWVIN54etoQe+WsRDw8C240Z2YZ+u/VNHpoumX4+XPDZaGOemhu8gD2RP8YXGzVo8Dh2WBgMeK+4aN5rujq2MNR9sgq84pUENtRrExfStyIIzYrhcnHH0mCZ4MtYugnYs0ngYkkQaNy3mfTVPQKXGXkP19icrAyusiWIb83U/GhIpB0oIfarSjVIzWJYW4IgXuwaeLJBsAjxFkvyFmoTxI7sTC6zJih6NwkddmRm0pY99q5JcxkDQ3tmTxC03LiANSYk/Iec55bDBEM7s6d1IAgsZePq0qdb6m+CXZjY12SYJRwIgrYbFghfGq9wRyDl/DBdQ3QgCAaxQT8CjbIa7yHih7RrGlG5EASDqI2RU1P1dcKYnPwd2ZDsDa90IQhSMm2WPg+dM91iFWDdY2+8zuBE0FAf0D7fY+XmiinZ+TYxaJgDBTgRRLUxBOSAhu24IfU303Pz1zxOBEUPunzjeE8TnUn3zTcO5iudbgQtNVYGkuQ778kY+tq4mLwZhyFuBHGNlid3nmHSgvg18EU+ja89OhEEXqBWR4f3SsOuePJ8l9SzeD/T7zoRtKiPFT/u+RY0g80DqmBjBPpk5ULQpN7Rn8K/fChj5LduBmG0eSYENmjrQFC9oRFkdadE/opHsvW5fUxezS9GI721J4g91WUTHQsD6AzjTEqJLxsvKL3YypogiEVqouXhT+wI84skFop0V0w6Sox3pMDQbqy+qlONy3t1oeLRQvqlF/pfV4XMvEJF1d0DosdW/+vq3uZpXbj8oAgAkgbpDagKmXstvKq62ERQ0ZcZETSqe216UGi/nqBuV/trFUFLr1hrr3hj10iQnqEqQWPypJa+Unh5LUHdt6auVYXUDo8J2LfCwTQTpGWoStC6ztOqHIyOoEb9URHU8QmExEERBhkQpGOoStBjzWtJRjbV4dES1NyxqpS18YKgAvSkeDFiQpAGVYJeyJtauipRDm6kB3UT3AT8pHienySoGkjfgyD3nSP30CBBy18H/q4GvSgIYqbfpjrbIB1BcVLSizobFG0ULiI4QSoblCaGGSikSVU/4klQWqkssa5L+N4svZgTQZNqwsfNa8DvFaGa9xQrN9ip8yNb2zjIhaBqHGRQiPOCP4o80oug7mu1eu6oLpZVrfYFJ6iSEWN1habiFxzrg2Elxw9FHjmAgEyJTbEnG/U1zydeqQ25qMuGZopXckkufXs4dTebt5qu1KL64JV8nGLlQP06FJcVnnCg5zZbK27WpGtf11SrnNTm01bSXVFabMEKknHEtW+kszKKWGGdTWzCzMa3GlhCCBovC3+vWzf/Ijv1L2T9VayTLPxLlb7epJvQZlxTHuSCQn1s9rj9ay6qiSAuK8xUyiXzVd0+pnVNkMsKhX58awvTzabg0gXDInf6GVasHx7R75P5gmQDQTi34gir/9zOMc2rKfXeoNtCP9yvMNGYHApdlIWSsfn6Nks6u/87MQ7E9QTB2AA/DKLU0kMvya6uxW/V5CsXQvIriFd89YaaSWWVtHoNyrjDKk9ZJ9DDmG6h0RJEhYgFlrqslADTvJnqK/xbfhYK5fGlgrdPcbTd1U9zHqeyRpmmjHam/jITEfKqDmQqpgOkI4hmxQ+xFlX5tlP9NvpR1UcU62OffY2HpaaHSzCKDVNZSbt+fuX6k3dFPgp+OGQoXkMQWmaBFdJEpa2ErGpVNK0m/7xQP7xYZtisixVc99eISB4CEWtPMRE31TLlz09QQUMrWE8Q42gosM6waslesyb8WY7ksyG8Fg7P++1sqBeXjkLMkKm5rqmsuPF5EsjBXkKq4ksQ1ikUlEfKMnwH3R6yafm93G0N+LxnzL206nPuBigOoeCCMm1L2a+v5cvBWKdvr6a7KOsIotJ9MrVDHqhWxS5Iynu9s+rP7EoQBLSxvv6hDo9kI5vKPDtvzFPZTfHpbEL0jbfK1hCEQtHhqAOWo/6ty3s5GeTFIvB5yW3387N6WUqE0z8bwgZzy4ole/NwY1Sz3leFmiBQ3ixGVFYKZFv9m9+v8pc+eZX8rPiqMKj/rEX2IZpA5yXtT1MWn89AsOVgq/L64dR4E56SILAOVJMgfzXtjtiUCMxPVMDzarhJfWwtljKMkMdvyWOPGuMpWnBxl/rhU9OEVa1BmPtlWYYK+6Y344vSetYlzmQsyym1J2A04FWup7BUWhOTIxbEdaXo6vF513CXWo0NYlSSpLxl0rhFkJY+xywkp1l9fo+t8suz+lI8J8go3LsexFCoj70wfPdYJYimaHkyhpR4at4A1y95enp1IpEfP+Djh1hdU1bwZrFZwnA5iqHozgyLHlQIgqkFQ4MM1fAzItvGCZKUPzg8H4gi/b1PJr8kXXzBIw8WNF+H5vkso4X66lPybHJrmSAaCx5nNc5r7ngz+Wh1UZaezzLhyQ/tQoiK4WGE88u8pXzF+saqvhrFQiWCaIz6T/OsV4WF0Vtfui3PwyxcoX78QAy0x8O35FE9VsmuZOg2qpsYfZRUIkhIguL6SsmPhl/rjiqbGFCHGo+4agCkqWsZHeIant1qgDyZ6vapjD4yLxGEa3O01n9F6OINtyB+Vl5dgQ4Jv5PF2IEc8YgO4Nr+CCVcsC91aGOw37pMEMxs3eLlgihewigRV+tIcH3W3Yw+OTE5+6nnmm2OicF0uKnd8RHJ5Z/64LRj8Tn8iJAX02uNW8SFMhoHOSUM0ddm3RKdYQEYWwpNpfbEquBNj5yCVhMenCurgPkJVCeH7R02GtW7GfZttUnc8vLG5rZkl/8x3CkZ6d+Qn948oAmwkR60zOiePN/hhPEXq+3zesysP2ZeO9YWVGFn8RGcDTrB+thzqFcyCValaxbc5J8xCqRDbhURv5wreN5idqdqMghgKIAd+uPYw68Q48M+A9WrVAP0/N3T7MffziMI4/PpWcss+Sbd4OW+ilh3yclrAq+35OT8GeF4Q569Ko91up71rJuRPHuVtpr6laNOTl4FJ0H6PvjpYBWAkds5SqH+VdPBgM0cp1m6Dxgq6LAkjsMIN3a9C44OCXlzqucBN3bvXI78jAEowoO1IVnDAD4EMAAv0M4fazs4hrt2P3ZuhFQiu2MqEpiZoery4fkTPas9QQP8XPRHj/gRH9hJY30YID39YPkPt5P+gtJ/xPoUIZ/5j8kGPTF6QIUL6l4fwViTneIL4Qro6NOKzYB4wXE8HBuivnH/hB0MfsrXGgfosGgwhZn0/m/Qg0inuLv+1BvVuP14NMNvoFfTuwQf6QKlv/ZGNatOaSZ9O7x/6KPBuCc/v3ybTUeDy7tJJujLaL6T3yas+ncM7Tsf8jPev7Pp5Co9Aulf85mUvj3eNbEww3j+fv5G9fC0f//cP+UHHJLV+/Tu/QPpbxfp7yD9+zX/6/bz/tJNET8O+7vnwpr95nnXXz7+kG6n62H/z6Eo/Xt3XL4EPhPPH0zwdLAej9eDVP8xyH2k0zh9GUvpdVsBWrRo0aJFixYtWrRo0aJFixYtWrRo0aJFixYtWrRo0aJFixYt/odoLony6/jd3Rxp8q9vJhFp4vmJiw948pvSTcCM64ffA76lUu8PLE/ye9KxtJdPIdAfQBx51qjwAdbfo0EGKE7vNMyydl2QMawpZP8fWKKcM5ArzY8AAAAASUVORK5CYII=;" parent="1" vertex="1">
          <mxGeometry x="382.37" y="304.59" width="80" height="48.61" as="geometry" />
        </mxCell>
        <mxCell id="bpk7fHlp-owrhIttHWPi-19" style="edgeStyle=orthogonalEdgeStyle;rounded=0;orthogonalLoop=1;jettySize=auto;html=1;exitX=0.5;exitY=1;exitDx=0;exitDy=0;" parent="1" edge="1">
          <mxGeometry relative="1" as="geometry">
            <mxPoint x="350.75" y="438.03999999999996" as="sourcePoint" />
            <mxPoint x="350.75" y="438.03999999999996" as="targetPoint" />
          </mxGeometry>
        </mxCell>
        <mxCell id="bpk7fHlp-owrhIttHWPi-27" value="&amp;nbsp; Larissa Gomes&amp;nbsp; &amp;nbsp; &amp;nbsp; &amp;nbsp; &amp;nbsp; &amp;nbsp; &amp;nbsp; &amp;nbsp; &amp;nbsp; &amp;nbsp; &amp;nbsp; &amp;nbsp; &amp;nbsp; &amp;nbsp;&amp;nbsp;" style="rounded=1;whiteSpace=wrap;html=1;" parent="1" vertex="1">
          <mxGeometry x="202.37" y="569" width="249.5" height="30" as="geometry" />
        </mxCell>
        <mxCell id="bpk7fHlp-owrhIttHWPi-29" value="&lt;ul&gt;&lt;li&gt;Carlos Henrique&amp;nbsp; &amp;nbsp; &amp;nbsp; &amp;nbsp; &amp;nbsp; &amp;nbsp; &amp;nbsp; &amp;nbsp; &amp;nbsp; &amp;nbsp; &amp;nbsp; &amp;nbsp; &amp;nbsp; &amp;nbsp; &amp;nbsp; &amp;nbsp; &amp;nbsp; &amp;nbsp;&amp;nbsp;&lt;/li&gt;&lt;/ul&gt;" style="rounded=1;whiteSpace=wrap;html=1;" parent="1" vertex="1">
          <mxGeometry x="202.37" y="445.7" width="249.5" height="30" as="geometry" />
        </mxCell>
        <mxCell id="bpk7fHlp-owrhIttHWPi-31" value="Carlos Henrique" style="rounded=1;whiteSpace=wrap;html=1;" parent="1" vertex="1">
          <mxGeometry x="251.87" y="316.2" width="130.5" height="38.8" as="geometry" />
        </mxCell>
        <mxCell id="bpk7fHlp-owrhIttHWPi-134" value="&amp;nbsp; Larissa Gomes&amp;nbsp; &amp;nbsp; &amp;nbsp; &amp;nbsp; &amp;nbsp; &amp;nbsp; &amp;nbsp; &amp;nbsp; &amp;nbsp; &amp;nbsp; &amp;nbsp; &amp;nbsp; &amp;nbsp; &amp;nbsp;&amp;nbsp;" style="rounded=1;whiteSpace=wrap;html=1;" parent="1" vertex="1">
          <mxGeometry x="202.37" y="487.83" width="249.5" height="30" as="geometry" />
        </mxCell>
        <mxCell id="bpk7fHlp-owrhIttHWPi-135" value="&amp;nbsp; Larissa Gomes&amp;nbsp; &amp;nbsp; &amp;nbsp; &amp;nbsp; &amp;nbsp; &amp;nbsp; &amp;nbsp; &amp;nbsp; &amp;nbsp; &amp;nbsp; &amp;nbsp; &amp;nbsp; &amp;nbsp; &amp;nbsp;&amp;nbsp;" style="rounded=1;whiteSpace=wrap;html=1;" parent="1" vertex="1">
          <mxGeometry x="202.37" y="608.13" width="249.5" height="30" as="geometry" />
        </mxCell>
        <mxCell id="bpk7fHlp-owrhIttHWPi-136" value="&amp;nbsp; Larissa Gomes&amp;nbsp; &amp;nbsp; &amp;nbsp; &amp;nbsp; &amp;nbsp; &amp;nbsp; &amp;nbsp; &amp;nbsp; &amp;nbsp; &amp;nbsp; &amp;nbsp; &amp;nbsp; &amp;nbsp; &amp;nbsp;&amp;nbsp;" style="rounded=1;whiteSpace=wrap;html=1;" parent="1" vertex="1">
          <mxGeometry x="202.37" y="647.76" width="249.5" height="30" as="geometry" />
        </mxCell>
        <mxCell id="bpk7fHlp-owrhIttHWPi-137" value="" style="html=1;shadow=0;dashed=0;align=center;verticalAlign=middle;shape=mxgraph.arrows2.jumpInArrow;dy=15;dx=38;arrowHead=55;" parent="1" vertex="1">
          <mxGeometry x="441" y="260" width="109" height="70" as="geometry" />
        </mxCell>
        <mxCell id="bpk7fHlp-owrhIttHWPi-139" value="" style="shape=image;verticalLabelPosition=bottom;labelBackgroundColor=default;verticalAlign=top;aspect=fixed;imageAspect=0;image=data:image/png,iVBORw0KGgoAAAANSUhEUgAAAL4AAACUCAMAAAAanWP/AAAAY1BMVEX///8AAAAEBAT6+vrs7Ozp6en39/fR0dHz8/MnJyfv7+/Hx8c+Pj5fX1/ExMS5ubnZ2dlTU1NwcHDf39+Li4tra2sUFBSampo0NDRGRkaEhISvr68uLi6jo6NLS0sbGxt6enqxsgbYAAAGvUlEQVR4nO1c2bLaMAy92RPIvi+E5P+/soRyqWU7kEVyygznrTO9ysGWtVnyz88XX3zxxRdfrIZtxecw6rouikInc4+mswZZlxfJ1a89b7jBu/hNEoy9YxzNawFOUVGWmgx62VTZ0fRewbW6q5Q58xtyxzyaphxWNL7h/hfXLv7/1Mjqg0XkJ/j5+Wi6EG71Tmsg6tQ5mjKDzl9FfsIw2kezfiBet/K/KLv/4QeY/SbyE4rjNcgpbtZwK/9LdzD7qN689ne01pHsc7mDXYrbtgUHOmLZmZ00SfcuTdufY8u1XTNzojyovbkfWh7lA6xEqvZlIgvPsqgNZhQtPIL8Tya42em3+G03p87uuUo02S8+gr8lCxLqPn5pzLOokPzVEKki/YSRSHj05ttgzD034qZ5ytff5yloWr4wpwpF9RkUn18xNl7hQu3WE7QuJiQroOcXsKxWBTChYLQShelwyK9es/bwZdz26dpIwHPm2/yxDdZvvV3x+qMq/rFbnv2m9LXjpPiK1D/ivptuTF2jAapPoUT9T5ziF5sldTAO0pWoD6c6wWm7KC7TaRREzzFcsmSPxhrc+e3RWM4CBi073b3Bhdzk2h9Bzd+rricmiNZ1LUXhOA+DcTc3tznurpeFA3C/xMvvgJTD23/W7BzsZo7AcR7cWcOwdBlQf5+0gJuBOLlGKbWCFSlJjQ90uEhVJrAklK7XBgliivQlsCYXwsTLAouP9iEQ+1RYUkWAILFAc/EgdkjpDi+I8/EOmQm0hy5uZj/j45WHDZB6kVVNHLDJiIJDVnBOVfZnLbSOaaCBO0l2ROAvwZpNVBV1gfZQRf1sfaxGlQxsD9Gdi8WGa9tTRBkiNgciOruguoObl4LbvRZV9BMgs8a1ziabwwWoop+o6PIKYPk9VNFPgMQCWTZbvtCRZT8wEtIHS0Pjt1j6F2TZoGRNQz9lvtAgy+5Zs0Djdln6V2TZHRvz04TMLP0EWbZi+j6ybKA89Ed3QJYNyg009EFpGVk2MJw0rW6q3Ba27AdA0IAblNvsucKNxZ8Alzm498igw4AoZDuzATNuOcZhs0WigNn0yZYoYvWSqs7G5hQ45dlfgGSRqtDD5hQepvKf2JM7UKXqYI0wlT9mT1VAVWOOWfoFom8ENeaKrEGb/UqNpz2w7k7X2gMuRfG0J2PFNnQlWlCLTNA6MEHE0NJdr5zAjTpWOclmhVL2xcBKNlYtFQTLDWVb9hksFM7ymxdWJum9Omze1FHUFGg+cUsnbGHBuAM/g3v6K+1IQswUyXWt3K+oJuxQoW6JaVn6CA6+hx2RGBRfIYbts3tjczYO0UkvdR/gesH2mekTuJHWPPp5NNMDC3bZE6K4XD+5ik5yvn9ue4zC9fJoBdWdIgvY+q5r/tb0wq5gGzNiDPsKIOy/4bqNP99GuE8PV0Bo391i/k98K7Ei3b+d3pRrX6/Xf1c6O6KikfPnbvyh2g5rM7zzzJzjujGArQiFKax0TfJiV8L4xC+WTpDsgzhnWS/f+Dh5MeWYqrCeP5zJvo9sLXsLwH0zEx4oGWOUkSicd1tvZMLYiwBfxRijKV3EMXq1dnaYL5kwrVXM8Z6k/PUgD2e016nGuRPL7UitYgxNmGF5wGuKnl8/K2qTWq42TSjOMXpKHNirOW8vaPsoDMOoy1P/hb4XFiwfPTZDiQOLLjtGvaeGfa2dNC0aRCl0pU4GzvLHJWTwujtJo5McilzFayCWMD62AsFvjGn0kmHqUYUDMJyL+OVlqP7xM2THSI0Dc3PJp9+DmzmSCanVvCaTpbMh2AxKXzCNUjei6B2Bc7pKhYJejC4mNwLtz+1fpaI5aiNsF784kcqn8aVu/GGb6GFnb99GmjC0zlxIzNdN/v7/XtljRG787tmMInw5jS99KId2GIqD1QX1ZRA4lF6d5O8jSakCYrduvUMWVW0RBEnT+H5zTYJizDtnURZrCe8nTJFFccBzXK6ZxY7jxLF1WqG9wiD5HRumyQ9CLDxDMYHwuhQZmdQFep/DX269jnlIZgNmgkBVDmw3Qqn9HNSU4BAgf/KqzD9l/TvR8U2gHgZHw0wVIPmU9ZclobqiEhwGcnkJ43r8U3rLUMn461rzIQ7AmMmh1b9ktRHyKirVdAg+Uhl/9QnAZsiLeN6nHF9T+l6mTt+6gQRLlr5r49G0FkOafm19T+oA3NJfQX3Go0mtQCamj0prJ3vh8OUf1O57evD8iaZbyBDC9PFTos4nQPp49PPHG/DvEk28GfgE2H16rS9NUR36cvMOnGLnHH9KsPnFF1988TH4A3yhS5GDYg1sAAAAAElFTkSuQmCC;" parent="1" vertex="1">
          <mxGeometry x="826.3599999999999" y="973.2" width="38.51" height="30" as="geometry" />
        </mxCell>
        <mxCell id="bpk7fHlp-owrhIttHWPi-140" value="&amp;nbsp; Larissa Gomes&amp;nbsp; &amp;nbsp; &amp;nbsp; &amp;nbsp; &amp;nbsp; &amp;nbsp; &amp;nbsp; &amp;nbsp; &amp;nbsp; &amp;nbsp; &amp;nbsp; &amp;nbsp; &amp;nbsp; &amp;nbsp;&amp;nbsp;" style="rounded=1;whiteSpace=wrap;html=1;" parent="1" vertex="1">
          <mxGeometry x="816.3599999999999" y="1345" width="249.5" height="30" as="geometry" />
        </mxCell>
        <mxCell id="bpk7fHlp-owrhIttHWPi-141" value="&lt;b style=&quot;&quot;&gt;&lt;font style=&quot;font-size: 13px;&quot;&gt;lista de clientes&amp;nbsp; &amp;nbsp; &amp;nbsp; &lt;/font&gt;&lt;span style=&quot;font-size: 15px;&quot;&gt;&amp;nbsp; &amp;nbsp; &amp;nbsp; &amp;nbsp; &amp;nbsp; &amp;nbsp; &amp;nbsp; &amp;nbsp; &amp;nbsp;&lt;/span&gt;&lt;/b&gt;" style="rounded=1;whiteSpace=wrap;html=1;" parent="1" vertex="1">
          <mxGeometry x="816.3599999999999" y="1185" width="249.5" height="30" as="geometry" />
        </mxCell>
        <mxCell id="bpk7fHlp-owrhIttHWPi-142" value="Gabriel Costa&amp;nbsp; &amp;nbsp; &amp;nbsp; &amp;nbsp; &amp;nbsp; &amp;nbsp; &amp;nbsp; &amp;nbsp; &amp;nbsp; &amp;nbsp; &amp;nbsp; &amp;nbsp; &amp;nbsp; &amp;nbsp;&amp;nbsp;" style="rounded=1;whiteSpace=wrap;html=1;" parent="1" vertex="1">
          <mxGeometry x="815.8599999999999" y="1245" width="250" height="30" as="geometry" />
        </mxCell>
        <mxCell id="bpk7fHlp-owrhIttHWPi-143" value="" style="shape=image;verticalLabelPosition=bottom;labelBackgroundColor=default;verticalAlign=top;aspect=fixed;imageAspect=0;image=data:image/png,iVBORw0KGgoAAAANSUhEUgAAASAAAACvCAMAAABqzPMLAAAAilBMVEX///8AAAD29vb7+/v09PT5+fnMzMwRERHx8fGBgYGFhYXo6Oju7u7i4uJhYWGtra29vb3S0tLd3d3IyMiioqJFRUV0dHSbm5uSkpKzs7MiIiI+Pj7X19fe3t4KCgonJydpaWkwMDBOTk4aGhpZWVk1NTV5eXmOjo5aWlpmZmYsLCy5ubkdHR1CQkK3Z/yxAAAQCklEQVR4nO1dC3eqOBAmL0XBqtX6qlVra+21t///7+1MQEUIIS/be/bw7Z7tvVvIhC+TeYQwiaIWLVq0aNHi/wv22x34x5Em/zxDafqLXRTJP08Q/c0uCpqKXxNuBsFT+nvCKfs94WZgjP3eEDIq/wnTUoBWVA0LAA/RuHDgGdihzOXGMrhgNOaUxv5NlUCjOEgXBRXQQw7/WtwDl8MIBRgdHlFgGp8j8IQVlAoWoos4U2RTwtym4LDENAqgvlzyAvYMGgvKEHRRcBH56yXwI/C/MIrGVheu5MBpHHlbD17Qm6AMgepwBnODWUwLNQqsMNMu8iiFKznlvgTxm/7zyPtpLkD1hiHH6evVzq3WGOoQj9FggOTYl5+MkYsv5iEmbdZiLH1IJFK/hgTNOsfyfuHcab5HTm4eeXvQbH5xfvXF3H9GIIAbdIqSJK+GYKIiPzEoYt6xZoYE2h54KOZt/nJ+5J/phaEAdggcDsww7hS93DaU6U/Wpfx50bRpb0LTZ2Gu6kEz/8XOf8ub9ydIumVo0d+kZQ+Z88EuP3VdBNVF8wz+yzvAyFo4C7v89CaIQYooUIG8XUhOxVlh8p4xnWrAHRQsBvoIP9koj5UJgnAsgGJSFqMFiv27WCKIR3kX66eYQAuF2hsiQM1ClCtB0DhQ5vtU0kTKLgbI8DKnfu2iTK50John4TY4sSAZIEo+i8sDDO8JFgvUcmA/RAYsigTlU0uj4piR4MSAPCxItCKktkijw3jmcXz5kV3EtI4GCagyP5IFZyILGXQmIGbguxiaiSD8nINSEccpz2yzZ1QnnwinKQ2U+NI8PqRxHDfzI/0OZvxB5tfZBuUth5lfEdofTLwDrTDRgr3J+Km3P2CWGf4+9vfvV5FnhgLZn8wr0lAqjhb/Ems28oPzQOCTBMqWEJfEIjNGnq0xDhOB4aiH66IQZ66RGp19jnFJJKYYQYcSHl3T92vK4Q7ZRczAeMgu0lyH0Bjp+aE0zfoQFDE7K49vZgejR3F9LPTCLRU0j0Z09lk6GVxeCbdec5YvGQqQoqYYNOAKTOgxzHRIUG2KKpedRBxwcl+bRu0M4L9iSVAcJv65gUBD1LBQBgpE49R/gVUFrs/+jJuh6Efu0kWZA+m7COlfJDyEM5pMltP5fLGYz6fLTnLTEo9DRHU8zsJEE+m2bUP013SPwDU1t9mdTBa7V1LCYbeYJE7N1QJcvGJ9I5kcldLH3kF7CSJ2yr/Gi33Wp+eHj/5iPp3OF/2Pz0P2//bzccgu8koXO8eL9N5VesbXZj9fh5TushPosb/CrnwvRoNbDWVssDw+4++2x0Gg/kXXdZsM6/5flPC0GCUl1RcgXY7RaRFQui3EFzKw7U/qL5n0tsjf6A52lS6RgVeNdDb6QAL3o/DCTcDnIH3Vb5pCbPzxBgM5DfzSOZ2/4dg0Su98bIDF4c9vIGJTmFvPS6Ookg9hrFfDkNLnXZhZX0akx9NXpCigdBOMkJ6O+fUTmIyvmqloKR10d29h/UdA0SGot2hA8gn0WD7u6ETIQ5AsKtnbDQ7iCyiahXb7tRiCB3VQ2SkYzC9/6dDM29L6LjYnpPsz1pruCPnjNBjJAwyjZ6LJsQ0nRUzeCfnwE26Ex5WHHoDubb2i60fQQmc9AOmHwLF9FSPwHh5zefDs8YDyEfc+0sESBfMUasx91ZTNCJm63rwgpO8lXYB5uKvDP3o83RnwlAu3Oz8CPN0iwBPUo+c1P86AeXJ0uW8WZH6AE5z7t6JGL9AMHjkxBPpjGfyosbwbQ4tgFm7koOd9QgLFwss72aFhkPmVYWkdKkwD+p9pwCe5YhKUd+ij1VrWJEgQfgbMhcdwrWVIN54etoQe+WsRDw8C240Z2YZ+u/VNHpoumX4+XPDZaGOemhu8gD2RP8YXGzVo8Dh2WBgMeK+4aN5rujq2MNR9sgq84pUENtRrExfStyIIzYrhcnHH0mCZ4MtYugnYs0ngYkkQaNy3mfTVPQKXGXkP19icrAyusiWIb83U/GhIpB0oIfarSjVIzWJYW4IgXuwaeLJBsAjxFkvyFmoTxI7sTC6zJih6NwkddmRm0pY99q5JcxkDQ3tmTxC03LiANSYk/Iec55bDBEM7s6d1IAgsZePq0qdb6m+CXZjY12SYJRwIgrYbFghfGq9wRyDl/DBdQ3QgCAaxQT8CjbIa7yHih7RrGlG5EASDqI2RU1P1dcKYnPwd2ZDsDa90IQhSMm2WPg+dM91iFWDdY2+8zuBE0FAf0D7fY+XmiinZ+TYxaJgDBTgRRLUxBOSAhu24IfU303Pz1zxOBEUPunzjeE8TnUn3zTcO5iudbgQtNVYGkuQ778kY+tq4mLwZhyFuBHGNlid3nmHSgvg18EU+ja89OhEEXqBWR4f3SsOuePJ8l9SzeD/T7zoRtKiPFT/u+RY0g80DqmBjBPpk5ULQpN7Rn8K/fChj5LduBmG0eSYENmjrQFC9oRFkdadE/opHsvW5fUxezS9GI721J4g91WUTHQsD6AzjTEqJLxsvKL3YypogiEVqouXhT+wI84skFop0V0w6Sox3pMDQbqy+qlONy3t1oeLRQvqlF/pfV4XMvEJF1d0DosdW/+vq3uZpXbj8oAgAkgbpDagKmXstvKq62ERQ0ZcZETSqe216UGi/nqBuV/trFUFLr1hrr3hj10iQnqEqQWPypJa+Unh5LUHdt6auVYXUDo8J2LfCwTQTpGWoStC6ztOqHIyOoEb9URHU8QmExEERBhkQpGOoStBjzWtJRjbV4dES1NyxqpS18YKgAvSkeDFiQpAGVYJeyJtauipRDm6kB3UT3AT8pHienySoGkjfgyD3nSP30CBBy18H/q4GvSgIYqbfpjrbIB1BcVLSizobFG0ULiI4QSoblCaGGSikSVU/4klQWqkssa5L+N4svZgTQZNqwsfNa8DvFaGa9xQrN9ip8yNb2zjIhaBqHGRQiPOCP4o80oug7mu1eu6oLpZVrfYFJ6iSEWN1habiFxzrg2Elxw9FHjmAgEyJTbEnG/U1zydeqQ25qMuGZopXckkufXs4dTebt5qu1KL64JV8nGLlQP06FJcVnnCg5zZbK27WpGtf11SrnNTm01bSXVFabMEKknHEtW+kszKKWGGdTWzCzMa3GlhCCBovC3+vWzf/Ijv1L2T9VayTLPxLlb7epJvQZlxTHuSCQn1s9rj9ay6qiSAuK8xUyiXzVd0+pnVNkMsKhX58awvTzabg0gXDInf6GVasHx7R75P5gmQDQTi34gir/9zOMc2rKfXeoNtCP9yvMNGYHApdlIWSsfn6Nks6u/87MQ7E9QTB2AA/DKLU0kMvya6uxW/V5CsXQvIriFd89YaaSWWVtHoNyrjDKk9ZJ9DDmG6h0RJEhYgFlrqslADTvJnqK/xbfhYK5fGlgrdPcbTd1U9zHqeyRpmmjHam/jITEfKqDmQqpgOkI4hmxQ+xFlX5tlP9NvpR1UcU62OffY2HpaaHSzCKDVNZSbt+fuX6k3dFPgp+OGQoXkMQWmaBFdJEpa2ErGpVNK0m/7xQP7xYZtisixVc99eISB4CEWtPMRE31TLlz09QQUMrWE8Q42gosM6waslesyb8WY7ksyG8Fg7P++1sqBeXjkLMkKm5rqmsuPF5EsjBXkKq4ksQ1ikUlEfKMnwH3R6yafm93G0N+LxnzL206nPuBigOoeCCMm1L2a+v5cvBWKdvr6a7KOsIotJ9MrVDHqhWxS5Iynu9s+rP7EoQBLSxvv6hDo9kI5vKPDtvzFPZTfHpbEL0jbfK1hCEQtHhqAOWo/6ty3s5GeTFIvB5yW3387N6WUqE0z8bwgZzy4ole/NwY1Sz3leFmiBQ3ixGVFYKZFv9m9+v8pc+eZX8rPiqMKj/rEX2IZpA5yXtT1MWn89AsOVgq/L64dR4E56SILAOVJMgfzXtjtiUCMxPVMDzarhJfWwtljKMkMdvyWOPGuMpWnBxl/rhU9OEVa1BmPtlWYYK+6Y344vSetYlzmQsyym1J2A04FWup7BUWhOTIxbEdaXo6vF513CXWo0NYlSSpLxl0rhFkJY+xywkp1l9fo+t8suz+lI8J8go3LsexFCoj70wfPdYJYimaHkyhpR4at4A1y95enp1IpEfP+Djh1hdU1bwZrFZwnA5iqHozgyLHlQIgqkFQ4MM1fAzItvGCZKUPzg8H4gi/b1PJr8kXXzBIw8WNF+H5vkso4X66lPybHJrmSAaCx5nNc5r7ngz+Wh1UZaezzLhyQ/tQoiK4WGE88u8pXzF+saqvhrFQiWCaIz6T/OsV4WF0Vtfui3PwyxcoX78QAy0x8O35FE9VsmuZOg2qpsYfZRUIkhIguL6SsmPhl/rjiqbGFCHGo+4agCkqWsZHeIant1qgDyZ6vapjD4yLxGEa3O01n9F6OINtyB+Vl5dgQ4Jv5PF2IEc8YgO4Nr+CCVcsC91aGOw37pMEMxs3eLlgihewigRV+tIcH3W3Yw+OTE5+6nnmm2OicF0uKnd8RHJ5Z/64LRj8Tn8iJAX02uNW8SFMhoHOSUM0ddm3RKdYQEYWwpNpfbEquBNj5yCVhMenCurgPkJVCeH7R02GtW7GfZttUnc8vLG5rZkl/8x3CkZ6d+Qn948oAmwkR60zOiePN/hhPEXq+3zesysP2ZeO9YWVGFn8RGcDTrB+thzqFcyCValaxbc5J8xCqRDbhURv5wreN5idqdqMghgKIAd+uPYw68Q48M+A9WrVAP0/N3T7MffziMI4/PpWcss+Sbd4OW+ilh3yclrAq+35OT8GeF4Q569Ko91up71rJuRPHuVtpr6laNOTl4FJ0H6PvjpYBWAkds5SqH+VdPBgM0cp1m6Dxgq6LAkjsMIN3a9C44OCXlzqucBN3bvXI78jAEowoO1IVnDAD4EMAAv0M4fazs4hrt2P3ZuhFQiu2MqEpiZoery4fkTPas9QQP8XPRHj/gRH9hJY30YID39YPkPt5P+gtJ/xPoUIZ/5j8kGPTF6QIUL6l4fwViTneIL4Qro6NOKzYB4wXE8HBuivnH/hB0MfsrXGgfosGgwhZn0/m/Qg0inuLv+1BvVuP14NMNvoFfTuwQf6QKlv/ZGNatOaSZ9O7x/6KPBuCc/v3ybTUeDy7tJJujLaL6T3yas+ncM7Tsf8jPev7Pp5Co9Aulf85mUvj3eNbEww3j+fv5G9fC0f//cP+UHHJLV+/Tu/QPpbxfp7yD9+zX/6/bz/tJNET8O+7vnwpr95nnXXz7+kG6n62H/z6Eo/Xt3XL4EPhPPH0zwdLAej9eDVP8xyH2k0zh9GUvpdVsBWrRo0aJFixYtWrRo0aJFixYtWrRo0aJFixYtWrRo0aJFixYt/odoLony6/jd3Rxp8q9vJhFp4vmJiw948pvSTcCM64ffA76lUu8PLE/ye9KxtJdPIdAfQBx51qjwAdbfo0EGKE7vNMyydl2QMawpZP8fWKKcM5ArzY8AAAAASUVORK5CYII=;" parent="1" vertex="1">
          <mxGeometry x="996.3599999999999" y="956.3899999999999" width="80" height="48.61" as="geometry" />
        </mxCell>
        <mxCell id="bpk7fHlp-owrhIttHWPi-144" value="" style="verticalLabelPosition=bottom;verticalAlign=top;html=1;shadow=0;dashed=0;strokeWidth=1;shape=mxgraph.ios.iDeleteIcon;fillColor=#e8878E;fillColor2=#BD1421;strokeColor=#ffffff;sketch=0;" parent="1" vertex="1">
          <mxGeometry x="1041.36" y="1351.87" width="15" height="16.25" as="geometry" />
        </mxCell>
        <mxCell id="bpk7fHlp-owrhIttHWPi-145" value="" style="verticalLabelPosition=bottom;verticalAlign=top;html=1;shadow=0;dashed=0;strokeWidth=1;shape=mxgraph.ios.iDeleteIcon;fillColor=#e8878E;fillColor2=#BD1421;strokeColor=#ffffff;sketch=0;" parent="1" vertex="1">
          <mxGeometry x="1040.86" y="1252.5" width="15" height="15" as="geometry" />
        </mxCell>
        <mxCell id="bpk7fHlp-owrhIttHWPi-146" value="" style="verticalLabelPosition=bottom;verticalAlign=top;html=1;shadow=0;dashed=0;strokeWidth=1;shape=mxgraph.ios.iAddIcon;fillColor=#7AdF78;fillColor2=#1A9917;strokeColor=#ffffff;sketch=0;" parent="1" vertex="1">
          <mxGeometry x="826.3599999999999" y="1025" width="30" height="30" as="geometry" />
        </mxCell>
        <mxCell id="bpk7fHlp-owrhIttHWPi-147" value="cadastrar cliente" style="rounded=1;whiteSpace=wrap;html=1;" parent="1" vertex="1">
          <mxGeometry x="864.8700000000001" y="1027.75" width="201.49" height="30" as="geometry" />
        </mxCell>
        <mxCell id="bpk7fHlp-owrhIttHWPi-148" value="nome :" style="text;html=1;align=center;verticalAlign=middle;whiteSpace=wrap;rounded=0;" parent="1" vertex="1">
          <mxGeometry x="803.99" y="1057.75" width="80.75" height="36.3" as="geometry" />
        </mxCell>
        <mxCell id="bpk7fHlp-owrhIttHWPi-149" value="endereÃ§o:" style="text;html=1;align=center;verticalAlign=middle;whiteSpace=wrap;rounded=0;" parent="1" vertex="1">
          <mxGeometry x="815.3599999999999" y="1094.05" width="70" height="30.65" as="geometry" />
        </mxCell>
        <mxCell id="bpk7fHlp-owrhIttHWPi-150" value="" style="rounded=1;whiteSpace=wrap;html=1;" parent="1" vertex="1">
          <mxGeometry x="884.74" y="1063.76" width="160" height="24.28" as="geometry" />
        </mxCell>
        <mxCell id="bpk7fHlp-owrhIttHWPi-151" value="" style="rounded=1;whiteSpace=wrap;html=1;" parent="1" vertex="1">
          <mxGeometry x="885.3599999999999" y="1094.05" width="160" height="25.33" as="geometry" />
        </mxCell>
        <mxCell id="bpk7fHlp-owrhIttHWPi-152" value="cpf:" style="text;html=1;align=center;verticalAlign=middle;whiteSpace=wrap;rounded=0;" parent="1" vertex="1">
          <mxGeometry x="936.3599999999999" y="1124.7" width="60" height="30" as="geometry" />
        </mxCell>
        <mxCell id="bpk7fHlp-owrhIttHWPi-153" value="gmail:" style="text;html=1;align=center;verticalAlign=middle;whiteSpace=wrap;rounded=0;" parent="1" vertex="1">
          <mxGeometry x="811.3599999999999" y="1125.35" width="60" height="30" as="geometry" />
        </mxCell>
        <mxCell id="bpk7fHlp-owrhIttHWPi-154" value="" style="rounded=1;whiteSpace=wrap;html=1;" parent="1" vertex="1">
          <mxGeometry x="864.8700000000001" y="1125.35" width="90" height="29.65" as="geometry" />
        </mxCell>
        <mxCell id="bpk7fHlp-owrhIttHWPi-155" value="" style="rounded=1;whiteSpace=wrap;html=1;" parent="1" vertex="1">
          <mxGeometry x="976.3599999999999" y="1125.7" width="80" height="29.3" as="geometry" />
        </mxCell>
        <mxCell id="bpk7fHlp-owrhIttHWPi-156" style="edgeStyle=orthogonalEdgeStyle;rounded=0;orthogonalLoop=1;jettySize=auto;html=1;exitX=0.5;exitY=1;exitDx=0;exitDy=0;" parent="1" source="bpk7fHlp-owrhIttHWPi-150" target="bpk7fHlp-owrhIttHWPi-150" edge="1">
          <mxGeometry relative="1" as="geometry" />
        </mxCell>
        <mxCell id="bpk7fHlp-owrhIttHWPi-157" value="endereÃ§o:" style="text;html=1;align=center;verticalAlign=middle;whiteSpace=wrap;rounded=0;" parent="1" vertex="1">
          <mxGeometry x="815.1200000000001" y="1280" width="60.74" height="25" as="geometry" />
        </mxCell>
        <mxCell id="bpk7fHlp-owrhIttHWPi-158" value="" style="rounded=1;whiteSpace=wrap;html=1;" parent="1" vertex="1">
          <mxGeometry x="873.3599999999999" y="1279.12" width="65" height="25" as="geometry" />
        </mxCell>
        <mxCell id="bpk7fHlp-owrhIttHWPi-159" value="cpf:" style="text;html=1;align=center;verticalAlign=middle;whiteSpace=wrap;rounded=0;" parent="1" vertex="1">
          <mxGeometry x="925.8599999999999" y="1275" width="60" height="30" as="geometry" />
        </mxCell>
        <mxCell id="bpk7fHlp-owrhIttHWPi-160" value="" style="rounded=1;whiteSpace=wrap;html=1;" parent="1" vertex="1">
          <mxGeometry x="973.8599999999999" y="1280" width="62" height="25" as="geometry" />
        </mxCell>
        <mxCell id="bpk7fHlp-owrhIttHWPi-161" value="gmai" style="text;html=1;align=center;verticalAlign=middle;whiteSpace=wrap;rounded=0;" parent="1" vertex="1">
          <mxGeometry x="805.1200000000001" y="1305" width="60" height="30" as="geometry" />
        </mxCell>
        <mxCell id="bpk7fHlp-owrhIttHWPi-162" value="" style="rounded=1;whiteSpace=wrap;html=1;" parent="1" vertex="1">
          <mxGeometry x="865.1200000000001" y="1310" width="100" height="25.5" as="geometry" />
        </mxCell>
        <mxCell id="bpk7fHlp-owrhIttHWPi-163" value=":" style="text;html=1;align=center;verticalAlign=middle;whiteSpace=wrap;rounded=0;" parent="1" vertex="1">
          <mxGeometry x="824.99" y="1305" width="60" height="30" as="geometry" />
        </mxCell>
        <mxCell id="bpk7fHlp-owrhIttHWPi-166" value="&amp;nbsp; Larissa Gomes&amp;nbsp; &amp;nbsp; &amp;nbsp; &amp;nbsp; &amp;nbsp; &amp;nbsp; &amp;nbsp; &amp;nbsp; &amp;nbsp; &amp;nbsp; &amp;nbsp; &amp;nbsp; &amp;nbsp; &amp;nbsp;&amp;nbsp;" style="rounded=1;whiteSpace=wrap;html=1;" parent="1" vertex="1">
          <mxGeometry x="816.3599999999999" y="1215" width="249.5" height="30" as="geometry" />
        </mxCell>
        <mxCell id="bpk7fHlp-owrhIttHWPi-167" value="" style="verticalLabelPosition=bottom;verticalAlign=top;html=1;shadow=0;dashed=0;strokeWidth=1;shape=mxgraph.ios.iDeleteIcon;fillColor=#e8878E;fillColor2=#BD1421;strokeColor=#ffffff;sketch=0;" parent="1" vertex="1">
          <mxGeometry x="1040.86" y="1221.87" width="15" height="16.25" as="geometry" />
        </mxCell>
        <mxCell id="bpk7fHlp-owrhIttHWPi-168" value="procurar cliente" style="rounded=1;whiteSpace=wrap;html=1;" parent="1" vertex="1">
          <mxGeometry x="865.8599999999999" y="966.2" width="130.5" height="38.8" as="geometry" />
        </mxCell>
        <mxCell id="bpk7fHlp-owrhIttHWPi-169" value="" style="rounded=1;whiteSpace=wrap;html=1;direction=south;" parent="1" vertex="1">
          <mxGeometry x="538.13" y="260" width="288.87" height="540" as="geometry" />
        </mxCell>
        <mxCell id="bpk7fHlp-owrhIttHWPi-170" value="" style="shape=image;verticalLabelPosition=bottom;labelBackgroundColor=default;verticalAlign=top;aspect=fixed;imageAspect=0;image=data:image/png,iVBORw0KGgoAAAANSUhEUgAAAL4AAACUCAMAAAAanWP/AAAAY1BMVEX///8AAAAEBAT6+vrs7Ozp6en39/fR0dHz8/MnJyfv7+/Hx8c+Pj5fX1/ExMS5ubnZ2dlTU1NwcHDf39+Li4tra2sUFBSampo0NDRGRkaEhISvr68uLi6jo6NLS0sbGxt6enqxsgbYAAAGvUlEQVR4nO1c2bLaMAy92RPIvi+E5P+/soRyqWU7kEVyygznrTO9ysGWtVnyz88XX3zxxRdfrIZtxecw6rouikInc4+mswZZlxfJ1a89b7jBu/hNEoy9YxzNawFOUVGWmgx62VTZ0fRewbW6q5Q58xtyxzyaphxWNL7h/hfXLv7/1Mjqg0XkJ/j5+Wi6EG71Tmsg6tQ5mjKDzl9FfsIw2kezfiBet/K/KLv/4QeY/SbyE4rjNcgpbtZwK/9LdzD7qN689ne01pHsc7mDXYrbtgUHOmLZmZ00SfcuTdufY8u1XTNzojyovbkfWh7lA6xEqvZlIgvPsqgNZhQtPIL8Tya42em3+G03p87uuUo02S8+gr8lCxLqPn5pzLOokPzVEKki/YSRSHj05ttgzD034qZ5ytff5yloWr4wpwpF9RkUn18xNl7hQu3WE7QuJiQroOcXsKxWBTChYLQShelwyK9es/bwZdz26dpIwHPm2/yxDdZvvV3x+qMq/rFbnv2m9LXjpPiK1D/ivptuTF2jAapPoUT9T5ziF5sldTAO0pWoD6c6wWm7KC7TaRREzzFcsmSPxhrc+e3RWM4CBi073b3Bhdzk2h9Bzd+rricmiNZ1LUXhOA+DcTc3tznurpeFA3C/xMvvgJTD23/W7BzsZo7AcR7cWcOwdBlQf5+0gJuBOLlGKbWCFSlJjQ90uEhVJrAklK7XBgliivQlsCYXwsTLAouP9iEQ+1RYUkWAILFAc/EgdkjpDi+I8/EOmQm0hy5uZj/j45WHDZB6kVVNHLDJiIJDVnBOVfZnLbSOaaCBO0l2ROAvwZpNVBV1gfZQRf1sfaxGlQxsD9Gdi8WGa9tTRBkiNgciOruguoObl4LbvRZV9BMgs8a1ziabwwWoop+o6PIKYPk9VNFPgMQCWTZbvtCRZT8wEtIHS0Pjt1j6F2TZoGRNQz9lvtAgy+5Zs0Djdln6V2TZHRvz04TMLP0EWbZi+j6ybKA89Ed3QJYNyg009EFpGVk2MJw0rW6q3Ba27AdA0IAblNvsucKNxZ8Alzm498igw4AoZDuzATNuOcZhs0WigNn0yZYoYvWSqs7G5hQ45dlfgGSRqtDD5hQepvKf2JM7UKXqYI0wlT9mT1VAVWOOWfoFom8ENeaKrEGb/UqNpz2w7k7X2gMuRfG0J2PFNnQlWlCLTNA6MEHE0NJdr5zAjTpWOclmhVL2xcBKNlYtFQTLDWVb9hksFM7ymxdWJum9Omze1FHUFGg+cUsnbGHBuAM/g3v6K+1IQswUyXWt3K+oJuxQoW6JaVn6CA6+hx2RGBRfIYbts3tjczYO0UkvdR/gesH2mekTuJHWPPp5NNMDC3bZE6K4XD+5ik5yvn9ue4zC9fJoBdWdIgvY+q5r/tb0wq5gGzNiDPsKIOy/4bqNP99GuE8PV0Bo391i/k98K7Ei3b+d3pRrX6/Xf1c6O6KikfPnbvyh2g5rM7zzzJzjujGArQiFKax0TfJiV8L4xC+WTpDsgzhnWS/f+Dh5MeWYqrCeP5zJvo9sLXsLwH0zEx4oGWOUkSicd1tvZMLYiwBfxRijKV3EMXq1dnaYL5kwrVXM8Z6k/PUgD2e016nGuRPL7UitYgxNmGF5wGuKnl8/K2qTWq42TSjOMXpKHNirOW8vaPsoDMOoy1P/hb4XFiwfPTZDiQOLLjtGvaeGfa2dNC0aRCl0pU4GzvLHJWTwujtJo5McilzFayCWMD62AsFvjGn0kmHqUYUDMJyL+OVlqP7xM2THSI0Dc3PJp9+DmzmSCanVvCaTpbMh2AxKXzCNUjei6B2Bc7pKhYJejC4mNwLtz+1fpaI5aiNsF784kcqn8aVu/GGb6GFnb99GmjC0zlxIzNdN/v7/XtljRG787tmMInw5jS99KId2GIqD1QX1ZRA4lF6d5O8jSakCYrduvUMWVW0RBEnT+H5zTYJizDtnURZrCe8nTJFFccBzXK6ZxY7jxLF1WqG9wiD5HRumyQ9CLDxDMYHwuhQZmdQFep/DX269jnlIZgNmgkBVDmw3Qqn9HNSU4BAgf/KqzD9l/TvR8U2gHgZHw0wVIPmU9ZclobqiEhwGcnkJ43r8U3rLUMn461rzIQ7AmMmh1b9ktRHyKirVdAg+Uhl/9QnAZsiLeN6nHF9T+l6mTt+6gQRLlr5r49G0FkOafm19T+oA3NJfQX3Go0mtQCamj0prJ3vh8OUf1O57evD8iaZbyBDC9PFTos4nQPp49PPHG/DvEk28GfgE2H16rS9NUR36cvMOnGLnHH9KsPnFF1988TH4A3yhS5GDYg1sAAAAAElFTkSuQmCC;" parent="1" vertex="1">
          <mxGeometry x="559.37" y="313.2" width="38.51" height="30" as="geometry" />
        </mxCell>
        <mxCell id="bpk7fHlp-owrhIttHWPi-171" value="&amp;nbsp; Larissa Gomes&amp;nbsp; &amp;nbsp; &amp;nbsp; &amp;nbsp; &amp;nbsp; &amp;nbsp; &amp;nbsp; &amp;nbsp; &amp;nbsp; &amp;nbsp; &amp;nbsp; &amp;nbsp; &amp;nbsp; &amp;nbsp;&amp;nbsp;" style="rounded=1;whiteSpace=wrap;html=1;" parent="1" vertex="1">
          <mxGeometry x="549.37" y="505" width="249.5" height="30" as="geometry" />
        </mxCell>
        <mxCell id="bpk7fHlp-owrhIttHWPi-172" value="&lt;b style=&quot;&quot;&gt;&lt;font style=&quot;font-size: 13px;&quot;&gt;lista de clientes&amp;nbsp; &amp;nbsp; &amp;nbsp; &lt;/font&gt;&lt;span style=&quot;font-size: 15px;&quot;&gt;&amp;nbsp; &amp;nbsp; &amp;nbsp; &amp;nbsp; &amp;nbsp; &amp;nbsp; &amp;nbsp; &amp;nbsp; &amp;nbsp;&lt;/span&gt;&lt;/b&gt;" style="rounded=1;whiteSpace=wrap;html=1;" parent="1" vertex="1">
          <mxGeometry x="548.87" y="390" width="249.5" height="30" as="geometry" />
        </mxCell>
        <mxCell id="bpk7fHlp-owrhIttHWPi-173" value="" style="shape=image;verticalLabelPosition=bottom;labelBackgroundColor=default;verticalAlign=top;aspect=fixed;imageAspect=0;image=data:image/png,iVBORw0KGgoAAAANSUhEUgAAASAAAACvCAMAAABqzPMLAAAAilBMVEX///8AAAD29vb7+/v09PT5+fnMzMwRERHx8fGBgYGFhYXo6Oju7u7i4uJhYWGtra29vb3S0tLd3d3IyMiioqJFRUV0dHSbm5uSkpKzs7MiIiI+Pj7X19fe3t4KCgonJydpaWkwMDBOTk4aGhpZWVk1NTV5eXmOjo5aWlpmZmYsLCy5ubkdHR1CQkK3Z/yxAAAQCklEQVR4nO1dC3eqOBAmL0XBqtX6qlVra+21t///7+1MQEUIIS/be/bw7Z7tvVvIhC+TeYQwiaIWLVq0aNHi/wv22x34x5Em/zxDafqLXRTJP08Q/c0uCpqKXxNuBsFT+nvCKfs94WZgjP3eEDIq/wnTUoBWVA0LAA/RuHDgGdihzOXGMrhgNOaUxv5NlUCjOEgXBRXQQw7/WtwDl8MIBRgdHlFgGp8j8IQVlAoWoos4U2RTwtym4LDENAqgvlzyAvYMGgvKEHRRcBH56yXwI/C/MIrGVheu5MBpHHlbD17Qm6AMgepwBnODWUwLNQqsMNMu8iiFKznlvgTxm/7zyPtpLkD1hiHH6evVzq3WGOoQj9FggOTYl5+MkYsv5iEmbdZiLH1IJFK/hgTNOsfyfuHcab5HTm4eeXvQbH5xfvXF3H9GIIAbdIqSJK+GYKIiPzEoYt6xZoYE2h54KOZt/nJ+5J/phaEAdggcDsww7hS93DaU6U/Wpfx50bRpb0LTZ2Gu6kEz/8XOf8ub9ydIumVo0d+kZQ+Z88EuP3VdBNVF8wz+yzvAyFo4C7v89CaIQYooUIG8XUhOxVlh8p4xnWrAHRQsBvoIP9koj5UJgnAsgGJSFqMFiv27WCKIR3kX66eYQAuF2hsiQM1ClCtB0DhQ5vtU0kTKLgbI8DKnfu2iTK50John4TY4sSAZIEo+i8sDDO8JFgvUcmA/RAYsigTlU0uj4piR4MSAPCxItCKktkijw3jmcXz5kV3EtI4GCagyP5IFZyILGXQmIGbguxiaiSD8nINSEccpz2yzZ1QnnwinKQ2U+NI8PqRxHDfzI/0OZvxB5tfZBuUth5lfEdofTLwDrTDRgr3J+Km3P2CWGf4+9vfvV5FnhgLZn8wr0lAqjhb/Ems28oPzQOCTBMqWEJfEIjNGnq0xDhOB4aiH66IQZ66RGp19jnFJJKYYQYcSHl3T92vK4Q7ZRczAeMgu0lyH0Bjp+aE0zfoQFDE7K49vZgejR3F9LPTCLRU0j0Z09lk6GVxeCbdec5YvGQqQoqYYNOAKTOgxzHRIUG2KKpedRBxwcl+bRu0M4L9iSVAcJv65gUBD1LBQBgpE49R/gVUFrs/+jJuh6Efu0kWZA+m7COlfJDyEM5pMltP5fLGYz6fLTnLTEo9DRHU8zsJEE+m2bUP013SPwDU1t9mdTBa7V1LCYbeYJE7N1QJcvGJ9I5kcldLH3kF7CSJ2yr/Gi33Wp+eHj/5iPp3OF/2Pz0P2//bzccgu8koXO8eL9N5VesbXZj9fh5TushPosb/CrnwvRoNbDWVssDw+4++2x0Gg/kXXdZsM6/5flPC0GCUl1RcgXY7RaRFQui3EFzKw7U/qL5n0tsjf6A52lS6RgVeNdDb6QAL3o/DCTcDnIH3Vb5pCbPzxBgM5DfzSOZ2/4dg0Su98bIDF4c9vIGJTmFvPS6Ookg9hrFfDkNLnXZhZX0akx9NXpCigdBOMkJ6O+fUTmIyvmqloKR10d29h/UdA0SGot2hA8gn0WD7u6ETIQ5AsKtnbDQ7iCyiahXb7tRiCB3VQ2SkYzC9/6dDM29L6LjYnpPsz1pruCPnjNBjJAwyjZ6LJsQ0nRUzeCfnwE26Ex5WHHoDubb2i60fQQmc9AOmHwLF9FSPwHh5zefDs8YDyEfc+0sESBfMUasx91ZTNCJm63rwgpO8lXYB5uKvDP3o83RnwlAu3Oz8CPN0iwBPUo+c1P86AeXJ0uW8WZH6AE5z7t6JGL9AMHjkxBPpjGfyosbwbQ4tgFm7koOd9QgLFwss72aFhkPmVYWkdKkwD+p9pwCe5YhKUd+ij1VrWJEgQfgbMhcdwrWVIN54etoQe+WsRDw8C240Z2YZ+u/VNHpoumX4+XPDZaGOemhu8gD2RP8YXGzVo8Dh2WBgMeK+4aN5rujq2MNR9sgq84pUENtRrExfStyIIzYrhcnHH0mCZ4MtYugnYs0ngYkkQaNy3mfTVPQKXGXkP19icrAyusiWIb83U/GhIpB0oIfarSjVIzWJYW4IgXuwaeLJBsAjxFkvyFmoTxI7sTC6zJih6NwkddmRm0pY99q5JcxkDQ3tmTxC03LiANSYk/Iec55bDBEM7s6d1IAgsZePq0qdb6m+CXZjY12SYJRwIgrYbFghfGq9wRyDl/DBdQ3QgCAaxQT8CjbIa7yHih7RrGlG5EASDqI2RU1P1dcKYnPwd2ZDsDa90IQhSMm2WPg+dM91iFWDdY2+8zuBE0FAf0D7fY+XmiinZ+TYxaJgDBTgRRLUxBOSAhu24IfU303Pz1zxOBEUPunzjeE8TnUn3zTcO5iudbgQtNVYGkuQ778kY+tq4mLwZhyFuBHGNlid3nmHSgvg18EU+ja89OhEEXqBWR4f3SsOuePJ8l9SzeD/T7zoRtKiPFT/u+RY0g80DqmBjBPpk5ULQpN7Rn8K/fChj5LduBmG0eSYENmjrQFC9oRFkdadE/opHsvW5fUxezS9GI721J4g91WUTHQsD6AzjTEqJLxsvKL3YypogiEVqouXhT+wI84skFop0V0w6Sox3pMDQbqy+qlONy3t1oeLRQvqlF/pfV4XMvEJF1d0DosdW/+vq3uZpXbj8oAgAkgbpDagKmXstvKq62ERQ0ZcZETSqe216UGi/nqBuV/trFUFLr1hrr3hj10iQnqEqQWPypJa+Unh5LUHdt6auVYXUDo8J2LfCwTQTpGWoStC6ztOqHIyOoEb9URHU8QmExEERBhkQpGOoStBjzWtJRjbV4dES1NyxqpS18YKgAvSkeDFiQpAGVYJeyJtauipRDm6kB3UT3AT8pHienySoGkjfgyD3nSP30CBBy18H/q4GvSgIYqbfpjrbIB1BcVLSizobFG0ULiI4QSoblCaGGSikSVU/4klQWqkssa5L+N4svZgTQZNqwsfNa8DvFaGa9xQrN9ip8yNb2zjIhaBqHGRQiPOCP4o80oug7mu1eu6oLpZVrfYFJ6iSEWN1habiFxzrg2Elxw9FHjmAgEyJTbEnG/U1zydeqQ25qMuGZopXckkufXs4dTebt5qu1KL64JV8nGLlQP06FJcVnnCg5zZbK27WpGtf11SrnNTm01bSXVFabMEKknHEtW+kszKKWGGdTWzCzMa3GlhCCBovC3+vWzf/Ijv1L2T9VayTLPxLlb7epJvQZlxTHuSCQn1s9rj9ay6qiSAuK8xUyiXzVd0+pnVNkMsKhX58awvTzabg0gXDInf6GVasHx7R75P5gmQDQTi34gir/9zOMc2rKfXeoNtCP9yvMNGYHApdlIWSsfn6Nks6u/87MQ7E9QTB2AA/DKLU0kMvya6uxW/V5CsXQvIriFd89YaaSWWVtHoNyrjDKk9ZJ9DDmG6h0RJEhYgFlrqslADTvJnqK/xbfhYK5fGlgrdPcbTd1U9zHqeyRpmmjHam/jITEfKqDmQqpgOkI4hmxQ+xFlX5tlP9NvpR1UcU62OffY2HpaaHSzCKDVNZSbt+fuX6k3dFPgp+OGQoXkMQWmaBFdJEpa2ErGpVNK0m/7xQP7xYZtisixVc99eISB4CEWtPMRE31TLlz09QQUMrWE8Q42gosM6waslesyb8WY7ksyG8Fg7P++1sqBeXjkLMkKm5rqmsuPF5EsjBXkKq4ksQ1ikUlEfKMnwH3R6yafm93G0N+LxnzL206nPuBigOoeCCMm1L2a+v5cvBWKdvr6a7KOsIotJ9MrVDHqhWxS5Iynu9s+rP7EoQBLSxvv6hDo9kI5vKPDtvzFPZTfHpbEL0jbfK1hCEQtHhqAOWo/6ty3s5GeTFIvB5yW3387N6WUqE0z8bwgZzy4ole/NwY1Sz3leFmiBQ3ixGVFYKZFv9m9+v8pc+eZX8rPiqMKj/rEX2IZpA5yXtT1MWn89AsOVgq/L64dR4E56SILAOVJMgfzXtjtiUCMxPVMDzarhJfWwtljKMkMdvyWOPGuMpWnBxl/rhU9OEVa1BmPtlWYYK+6Y344vSetYlzmQsyym1J2A04FWup7BUWhOTIxbEdaXo6vF513CXWo0NYlSSpLxl0rhFkJY+xywkp1l9fo+t8suz+lI8J8go3LsexFCoj70wfPdYJYimaHkyhpR4at4A1y95enp1IpEfP+Djh1hdU1bwZrFZwnA5iqHozgyLHlQIgqkFQ4MM1fAzItvGCZKUPzg8H4gi/b1PJr8kXXzBIw8WNF+H5vkso4X66lPybHJrmSAaCx5nNc5r7ngz+Wh1UZaezzLhyQ/tQoiK4WGE88u8pXzF+saqvhrFQiWCaIz6T/OsV4WF0Vtfui3PwyxcoX78QAy0x8O35FE9VsmuZOg2qpsYfZRUIkhIguL6SsmPhl/rjiqbGFCHGo+4agCkqWsZHeIant1qgDyZ6vapjD4yLxGEa3O01n9F6OINtyB+Vl5dgQ4Jv5PF2IEc8YgO4Nr+CCVcsC91aGOw37pMEMxs3eLlgihewigRV+tIcH3W3Yw+OTE5+6nnmm2OicF0uKnd8RHJ5Z/64LRj8Tn8iJAX02uNW8SFMhoHOSUM0ddm3RKdYQEYWwpNpfbEquBNj5yCVhMenCurgPkJVCeH7R02GtW7GfZttUnc8vLG5rZkl/8x3CkZ6d+Qn948oAmwkR60zOiePN/hhPEXq+3zesysP2ZeO9YWVGFn8RGcDTrB+thzqFcyCValaxbc5J8xCqRDbhURv5wreN5idqdqMghgKIAd+uPYw68Q48M+A9WrVAP0/N3T7MffziMI4/PpWcss+Sbd4OW+ilh3yclrAq+35OT8GeF4Q569Ko91up71rJuRPHuVtpr6laNOTl4FJ0H6PvjpYBWAkds5SqH+VdPBgM0cp1m6Dxgq6LAkjsMIN3a9C44OCXlzqucBN3bvXI78jAEowoO1IVnDAD4EMAAv0M4fazs4hrt2P3ZuhFQiu2MqEpiZoery4fkTPas9QQP8XPRHj/gRH9hJY30YID39YPkPt5P+gtJ/xPoUIZ/5j8kGPTF6QIUL6l4fwViTneIL4Qro6NOKzYB4wXE8HBuivnH/hB0MfsrXGgfosGgwhZn0/m/Qg0inuLv+1BvVuP14NMNvoFfTuwQf6QKlv/ZGNatOaSZ9O7x/6KPBuCc/v3ybTUeDy7tJJujLaL6T3yas+ncM7Tsf8jPev7Pp5Co9Aulf85mUvj3eNbEww3j+fv5G9fC0f//cP+UHHJLV+/Tu/QPpbxfp7yD9+zX/6/bz/tJNET8O+7vnwpr95nnXXz7+kG6n62H/z6Eo/Xt3XL4EPhPPH0zwdLAej9eDVP8xyH2k0zh9GUvpdVsBWrRo0aJFixYtWrRo0aJFixYtWrRo0aJFixYtWrRo0aJFixYt/odoLony6/jd3Rxp8q9vJhFp4vmJiw948pvSTcCM64ffA76lUu8PLE/ye9KxtJdPIdAfQBx51qjwAdbfo0EGKE7vNMyydl2QMawpZP8fWKKcM5ArzY8AAAAASUVORK5CYII=;" parent="1" vertex="1">
          <mxGeometry x="729.37" y="294.59" width="80" height="48.61" as="geometry" />
        </mxCell>
        <mxCell id="bpk7fHlp-owrhIttHWPi-174" style="edgeStyle=orthogonalEdgeStyle;rounded=0;orthogonalLoop=1;jettySize=auto;html=1;exitX=0.5;exitY=1;exitDx=0;exitDy=0;" parent="1" edge="1">
          <mxGeometry relative="1" as="geometry">
            <mxPoint x="697.75" y="428.03999999999996" as="sourcePoint" />
            <mxPoint x="697.75" y="428.03999999999996" as="targetPoint" />
          </mxGeometry>
        </mxCell>
        <mxCell id="bpk7fHlp-owrhIttHWPi-175" value="&amp;nbsp; Larissa Gomes&amp;nbsp; &amp;nbsp; &amp;nbsp; &amp;nbsp; &amp;nbsp; &amp;nbsp; &amp;nbsp; &amp;nbsp; &amp;nbsp; &amp;nbsp; &amp;nbsp; &amp;nbsp; &amp;nbsp; &amp;nbsp;&amp;nbsp;" style="rounded=1;whiteSpace=wrap;html=1;" parent="1" vertex="1">
          <mxGeometry x="549.37" y="544" width="249.5" height="30" as="geometry" />
        </mxCell>
        <mxCell id="bpk7fHlp-owrhIttHWPi-176" value="&amp;nbsp; Larissa Gomes&amp;nbsp; &amp;nbsp; &amp;nbsp; &amp;nbsp; &amp;nbsp; &amp;nbsp; &amp;nbsp; &amp;nbsp; &amp;nbsp; &amp;nbsp; &amp;nbsp; &amp;nbsp; &amp;nbsp; &amp;nbsp;&amp;nbsp;" style="rounded=1;whiteSpace=wrap;html=1;" parent="1" vertex="1">
          <mxGeometry x="549.37" y="429.38" width="249.5" height="30" as="geometry" />
        </mxCell>
        <mxCell id="bpk7fHlp-owrhIttHWPi-177" value="procurar cliente" style="rounded=1;whiteSpace=wrap;html=1;" parent="1" vertex="1">
          <mxGeometry x="598.87" y="306.2" width="130.5" height="38.8" as="geometry" />
        </mxCell>
        <mxCell id="bpk7fHlp-owrhIttHWPi-178" value="&amp;nbsp; Larissa Gomes&amp;nbsp; &amp;nbsp; &amp;nbsp; &amp;nbsp; &amp;nbsp; &amp;nbsp; &amp;nbsp; &amp;nbsp; &amp;nbsp; &amp;nbsp; &amp;nbsp; &amp;nbsp; &amp;nbsp; &amp;nbsp;&amp;nbsp;" style="rounded=1;whiteSpace=wrap;html=1;" parent="1" vertex="1">
          <mxGeometry x="548.87" y="464.7" width="249.5" height="30" as="geometry" />
        </mxCell>
        <mxCell id="bpk7fHlp-owrhIttHWPi-179" value="&amp;nbsp; Larissa Gomes&amp;nbsp; &amp;nbsp; &amp;nbsp; &amp;nbsp; &amp;nbsp; &amp;nbsp; &amp;nbsp; &amp;nbsp; &amp;nbsp; &amp;nbsp; &amp;nbsp; &amp;nbsp; &amp;nbsp; &amp;nbsp;&amp;nbsp;" style="rounded=1;whiteSpace=wrap;html=1;" parent="1" vertex="1">
          <mxGeometry x="548.87" y="585" width="249.5" height="30" as="geometry" />
        </mxCell>
        <mxCell id="bpk7fHlp-owrhIttHWPi-180" value="&amp;nbsp; Larissa Gomes&amp;nbsp; &amp;nbsp; &amp;nbsp; &amp;nbsp; &amp;nbsp; &amp;nbsp; &amp;nbsp; &amp;nbsp; &amp;nbsp; &amp;nbsp; &amp;nbsp; &amp;nbsp; &amp;nbsp; &amp;nbsp;&amp;nbsp;" style="rounded=1;whiteSpace=wrap;html=1;" parent="1" vertex="1">
          <mxGeometry x="554.49" y="630" width="249.5" height="30" as="geometry" />
        </mxCell>
        <mxCell id="bpk7fHlp-owrhIttHWPi-181" value="" style="verticalLabelPosition=bottom;verticalAlign=top;html=1;shadow=0;dashed=0;strokeWidth=1;shape=mxgraph.ios.iDeleteIcon;fillColor=#e8878E;fillColor2=#BD1421;strokeColor=#ffffff;sketch=0;" parent="1" vertex="1">
          <mxGeometry x="771.9999999999999" y="398.75" width="15" height="16.25" as="geometry" />
        </mxCell>
        <mxCell id="bpk7fHlp-owrhIttHWPi-184" value="" style="verticalLabelPosition=bottom;verticalAlign=top;html=1;shadow=0;dashed=0;strokeWidth=1;shape=mxgraph.ios.iDeleteIcon;fillColor=#e8878E;fillColor2=#BD1421;strokeColor=#ffffff;sketch=0;" parent="1" vertex="1">
          <mxGeometry x="1041.36" y="1190.88" width="15" height="16.25" as="geometry" />
        </mxCell>
        <mxCell id="bpk7fHlp-owrhIttHWPi-185" value="" style="verticalLabelPosition=bottom;verticalAlign=top;html=1;shadow=0;dashed=0;strokeWidth=1;shape=mxgraph.ios.iDeleteIcon;fillColor=#e8878E;fillColor2=#BD1421;strokeColor=#ffffff;sketch=0;" parent="1" vertex="1">
          <mxGeometry x="773.9999999999999" y="511.88" width="15" height="16.25" as="geometry" />
        </mxCell>
        <mxCell id="bpk7fHlp-owrhIttHWPi-186" value="" style="verticalLabelPosition=bottom;verticalAlign=top;html=1;shadow=0;dashed=0;strokeWidth=1;shape=mxgraph.ios.iDeleteIcon;fillColor=#e8878E;fillColor2=#BD1421;strokeColor=#ffffff;sketch=0;" parent="1" vertex="1">
          <mxGeometry x="773.9999999999999" y="471.58000000000004" width="15" height="16.25" as="geometry" />
        </mxCell>
        <mxCell id="bpk7fHlp-owrhIttHWPi-187" value="" style="verticalLabelPosition=bottom;verticalAlign=top;html=1;shadow=0;dashed=0;strokeWidth=1;shape=mxgraph.ios.iDeleteIcon;fillColor=#e8878E;fillColor2=#BD1421;strokeColor=#ffffff;sketch=0;" parent="1" vertex="1">
          <mxGeometry x="773.9999999999999" y="591.88" width="15" height="16.25" as="geometry" />
        </mxCell>
        <mxCell id="bpk7fHlp-owrhIttHWPi-188" value="" style="verticalLabelPosition=bottom;verticalAlign=top;html=1;shadow=0;dashed=0;strokeWidth=1;shape=mxgraph.ios.iDeleteIcon;fillColor=#e8878E;fillColor2=#BD1421;strokeColor=#ffffff;sketch=0;" parent="1" vertex="1">
          <mxGeometry x="773.9999999999999" y="550.88" width="15" height="16.25" as="geometry" />
        </mxCell>
        <mxCell id="bpk7fHlp-owrhIttHWPi-189" value="" style="verticalLabelPosition=bottom;verticalAlign=top;html=1;shadow=0;dashed=0;strokeWidth=1;shape=mxgraph.ios.iDeleteIcon;fillColor=#e8878E;fillColor2=#BD1421;strokeColor=#ffffff;sketch=0;" parent="1" vertex="1">
          <mxGeometry x="772.9999999999999" y="438.13" width="15" height="16.25" as="geometry" />
        </mxCell>
        <mxCell id="bpk7fHlp-owrhIttHWPi-190" value="" style="verticalLabelPosition=bottom;verticalAlign=top;html=1;shadow=0;dashed=0;strokeWidth=1;shape=mxgraph.ios.iDeleteIcon;fillColor=#e8878E;fillColor2=#BD1421;strokeColor=#ffffff;sketch=0;" parent="1" vertex="1">
          <mxGeometry x="773.9999999999999" y="636.88" width="15" height="16.25" as="geometry" />
        </mxCell>
        <mxCell id="bpk7fHlp-owrhIttHWPi-191" value="" style="html=1;shadow=0;dashed=0;align=center;verticalAlign=middle;shape=mxgraph.arrows2.jumpInArrow;dy=15;dx=38;arrowHead=55;" parent="1" vertex="1">
          <mxGeometry x="441" y="263.2" width="109" height="70" as="geometry" />
        </mxCell>
        <mxCell id="bpk7fHlp-owrhIttHWPi-192" value="" style="html=1;shadow=0;dashed=0;align=center;verticalAlign=middle;shape=mxgraph.arrows2.jumpInArrow;dy=15;dx=38;arrowHead=55;" parent="1" vertex="1">
          <mxGeometry x="750" y="247" width="240" height="80" as="geometry" />
        </mxCell>
        <mxCell id="bpk7fHlp-owrhIttHWPi-193" value="&lt;div&gt;&lt;br&gt;&lt;/div&gt;&lt;div&gt;&lt;br&gt;&lt;/div&gt;&lt;div&gt;&lt;br&gt;&lt;/div&gt;&lt;div&gt;&lt;br&gt;&lt;/div&gt;&lt;div&gt;&lt;br&gt;&lt;/div&gt;&lt;div&gt;&lt;br&gt;&lt;/div&gt;&lt;div&gt;&lt;br&gt;&lt;/div&gt;&lt;div&gt;&lt;br&gt;&lt;/div&gt;&lt;div&gt;&lt;br&gt;&lt;/div&gt;&lt;div&gt;&lt;br&gt;&lt;/div&gt;&lt;div&gt;&lt;br&gt;&lt;/div&gt;&lt;div&gt;&lt;br&gt;&lt;/div&gt;&lt;div&gt;&lt;br&gt;&lt;/div&gt;&lt;div&gt;&lt;br&gt;&lt;/div&gt;&lt;div&gt;&lt;br&gt;&lt;/div&gt;&lt;div&gt;&lt;br&gt;&lt;/div&gt;&lt;div&gt;&lt;br&gt;&lt;/div&gt;&lt;div&gt;&lt;br&gt;&lt;/div&gt;&lt;div&gt;&lt;br&gt;&lt;/div&gt;&lt;div&gt;&lt;br&gt;&lt;/div&gt;&lt;div&gt;&lt;br&gt;&lt;/div&gt;&lt;div&gt;&lt;br&gt;&lt;/div&gt;&lt;div&gt;&lt;br&gt;&lt;/div&gt;&lt;div&gt;&lt;br&gt;&lt;/div&gt;&lt;div&gt;&lt;br&gt;&lt;/div&gt;&lt;div&gt;&lt;br&gt;&lt;/div&gt;&lt;div&gt;&lt;br&gt;&lt;/div&gt;&lt;div&gt;&lt;br&gt;&lt;/div&gt;&lt;div&gt;&lt;br&gt;&lt;/div&gt;&lt;div&gt;&lt;br&gt;&lt;/div&gt;&lt;div&gt;&lt;br&gt;&lt;/div&gt;&lt;div&gt;&lt;br&gt;&lt;/div&gt;&lt;div&gt;&lt;br&gt;&lt;/div&gt;&lt;div&gt;&lt;br&gt;&lt;/div&gt;&lt;div&gt;&lt;br&gt;&lt;/div&gt;&lt;div&gt;&lt;br&gt;&lt;/div&gt;&lt;div&gt;&lt;br&gt;&lt;/div&gt;&lt;div&gt;&lt;br&gt;&lt;/div&gt;&lt;div&gt;&lt;br&gt;&lt;/div&gt;&lt;div&gt;&lt;br&gt;&lt;/div&gt;&lt;div&gt;&lt;br&gt;&lt;/div&gt;&lt;div&gt;&lt;br&gt;&lt;/div&gt;&lt;div&gt;&lt;br&gt;&lt;/div&gt;&lt;div&gt;&lt;br&gt;&lt;/div&gt;&lt;div&gt;&lt;br&gt;&lt;/div&gt;&lt;div&gt;&lt;br&gt;&lt;/div&gt;&lt;div&gt;&lt;br&gt;&lt;/div&gt;&lt;div&gt;&lt;br&gt;&lt;/div&gt;&lt;div&gt;&lt;br&gt;&lt;/div&gt;&lt;div&gt;&lt;br&gt;&lt;/div&gt;&lt;div&gt;&lt;br&gt;&lt;/div&gt;&lt;div&gt;&lt;br&gt;&lt;/div&gt;&lt;div&gt;&lt;br&gt;&lt;/div&gt;&lt;div&gt;&lt;br&gt;&lt;/div&gt;&lt;div&gt;&lt;br&gt;&lt;/div&gt;&lt;div&gt;&lt;br&gt;&lt;/div&gt;&lt;div&gt;&lt;br&gt;&lt;/div&gt;&lt;div&gt;&lt;br&gt;&lt;/div&gt;&lt;div&gt;&lt;br&gt;&lt;/div&gt;&lt;div&gt;&lt;br&gt;&lt;/div&gt;&lt;div&gt;&lt;br&gt;&lt;/div&gt;&lt;div&gt;&lt;br&gt;&lt;/div&gt;&lt;div&gt;&lt;br&gt;&lt;/div&gt;&lt;div&gt;&lt;br&gt;&lt;/div&gt;&lt;div&gt;&lt;br&gt;&lt;/div&gt;&lt;div&gt;&lt;br&gt;&lt;/div&gt;&lt;div&gt;&lt;br&gt;&lt;/div&gt;&lt;div&gt;&lt;br&gt;&lt;/div&gt;&lt;div&gt;&lt;br&gt;&lt;/div&gt;" style="html=1;shadow=0;dashed=0;align=center;verticalAlign=middle;shape=mxgraph.arrows2.jumpInArrow;dy=15;dx=38;arrowHead=55;" parent="1" vertex="1">
          <mxGeometry x="745.6" y="247" width="247.63" height="80" as="geometry" />
        </mxCell>
        <mxCell id="bpk7fHlp-owrhIttHWPi-194" value="" style="rounded=1;whiteSpace=wrap;html=1;direction=south;" parent="1" vertex="1">
          <mxGeometry x="985.86" y="232.82999999999998" width="288.87" height="540" as="geometry" />
        </mxCell>
        <mxCell id="bpk7fHlp-owrhIttHWPi-195" value="" style="shape=image;verticalLabelPosition=bottom;labelBackgroundColor=default;verticalAlign=top;aspect=fixed;imageAspect=0;image=data:image/png,iVBORw0KGgoAAAANSUhEUgAAAL4AAACUCAMAAAAanWP/AAAAY1BMVEX///8AAAAEBAT6+vrs7Ozp6en39/fR0dHz8/MnJyfv7+/Hx8c+Pj5fX1/ExMS5ubnZ2dlTU1NwcHDf39+Li4tra2sUFBSampo0NDRGRkaEhISvr68uLi6jo6NLS0sbGxt6enqxsgbYAAAGvUlEQVR4nO1c2bLaMAy92RPIvi+E5P+/soRyqWU7kEVyygznrTO9ysGWtVnyz88XX3zxxRdfrIZtxecw6rouikInc4+mswZZlxfJ1a89b7jBu/hNEoy9YxzNawFOUVGWmgx62VTZ0fRewbW6q5Q58xtyxzyaphxWNL7h/hfXLv7/1Mjqg0XkJ/j5+Wi6EG71Tmsg6tQ5mjKDzl9FfsIw2kezfiBet/K/KLv/4QeY/SbyE4rjNcgpbtZwK/9LdzD7qN689ne01pHsc7mDXYrbtgUHOmLZmZ00SfcuTdufY8u1XTNzojyovbkfWh7lA6xEqvZlIgvPsqgNZhQtPIL8Tya42em3+G03p87uuUo02S8+gr8lCxLqPn5pzLOokPzVEKki/YSRSHj05ttgzD034qZ5ytff5yloWr4wpwpF9RkUn18xNl7hQu3WE7QuJiQroOcXsKxWBTChYLQShelwyK9es/bwZdz26dpIwHPm2/yxDdZvvV3x+qMq/rFbnv2m9LXjpPiK1D/ivptuTF2jAapPoUT9T5ziF5sldTAO0pWoD6c6wWm7KC7TaRREzzFcsmSPxhrc+e3RWM4CBi073b3Bhdzk2h9Bzd+rricmiNZ1LUXhOA+DcTc3tznurpeFA3C/xMvvgJTD23/W7BzsZo7AcR7cWcOwdBlQf5+0gJuBOLlGKbWCFSlJjQ90uEhVJrAklK7XBgliivQlsCYXwsTLAouP9iEQ+1RYUkWAILFAc/EgdkjpDi+I8/EOmQm0hy5uZj/j45WHDZB6kVVNHLDJiIJDVnBOVfZnLbSOaaCBO0l2ROAvwZpNVBV1gfZQRf1sfaxGlQxsD9Gdi8WGa9tTRBkiNgciOruguoObl4LbvRZV9BMgs8a1ziabwwWoop+o6PIKYPk9VNFPgMQCWTZbvtCRZT8wEtIHS0Pjt1j6F2TZoGRNQz9lvtAgy+5Zs0Djdln6V2TZHRvz04TMLP0EWbZi+j6ybKA89Ed3QJYNyg009EFpGVk2MJw0rW6q3Ba27AdA0IAblNvsucKNxZ8Alzm498igw4AoZDuzATNuOcZhs0WigNn0yZYoYvWSqs7G5hQ45dlfgGSRqtDD5hQepvKf2JM7UKXqYI0wlT9mT1VAVWOOWfoFom8ENeaKrEGb/UqNpz2w7k7X2gMuRfG0J2PFNnQlWlCLTNA6MEHE0NJdr5zAjTpWOclmhVL2xcBKNlYtFQTLDWVb9hksFM7ymxdWJum9Omze1FHUFGg+cUsnbGHBuAM/g3v6K+1IQswUyXWt3K+oJuxQoW6JaVn6CA6+hx2RGBRfIYbts3tjczYO0UkvdR/gesH2mekTuJHWPPp5NNMDC3bZE6K4XD+5ik5yvn9ue4zC9fJoBdWdIgvY+q5r/tb0wq5gGzNiDPsKIOy/4bqNP99GuE8PV0Bo391i/k98K7Ei3b+d3pRrX6/Xf1c6O6KikfPnbvyh2g5rM7zzzJzjujGArQiFKax0TfJiV8L4xC+WTpDsgzhnWS/f+Dh5MeWYqrCeP5zJvo9sLXsLwH0zEx4oGWOUkSicd1tvZMLYiwBfxRijKV3EMXq1dnaYL5kwrVXM8Z6k/PUgD2e016nGuRPL7UitYgxNmGF5wGuKnl8/K2qTWq42TSjOMXpKHNirOW8vaPsoDMOoy1P/hb4XFiwfPTZDiQOLLjtGvaeGfa2dNC0aRCl0pU4GzvLHJWTwujtJo5McilzFayCWMD62AsFvjGn0kmHqUYUDMJyL+OVlqP7xM2THSI0Dc3PJp9+DmzmSCanVvCaTpbMh2AxKXzCNUjei6B2Bc7pKhYJejC4mNwLtz+1fpaI5aiNsF784kcqn8aVu/GGb6GFnb99GmjC0zlxIzNdN/v7/XtljRG787tmMInw5jS99KId2GIqD1QX1ZRA4lF6d5O8jSakCYrduvUMWVW0RBEnT+H5zTYJizDtnURZrCe8nTJFFccBzXK6ZxY7jxLF1WqG9wiD5HRumyQ9CLDxDMYHwuhQZmdQFep/DX269jnlIZgNmgkBVDmw3Qqn9HNSU4BAgf/KqzD9l/TvR8U2gHgZHw0wVIPmU9ZclobqiEhwGcnkJ43r8U3rLUMn461rzIQ7AmMmh1b9ktRHyKirVdAg+Uhl/9QnAZsiLeN6nHF9T+l6mTt+6gQRLlr5r49G0FkOafm19T+oA3NJfQX3Go0mtQCamj0prJ3vh8OUf1O57evD8iaZbyBDC9PFTos4nQPp49PPHG/DvEk28GfgE2H16rS9NUR36cvMOnGLnHH9KsPnFF1988TH4A3yhS5GDYg1sAAAAAElFTkSuQmCC;" parent="1" vertex="1">
          <mxGeometry x="1008.2299999999999" y="296.03000000000003" width="38.51" height="30" as="geometry" />
        </mxCell>
        <mxCell id="bpk7fHlp-owrhIttHWPi-196" value="&amp;nbsp; Larissa Gomes&amp;nbsp; &amp;nbsp; &amp;nbsp; &amp;nbsp; &amp;nbsp; &amp;nbsp; &amp;nbsp; &amp;nbsp; &amp;nbsp; &amp;nbsp; &amp;nbsp; &amp;nbsp; &amp;nbsp; &amp;nbsp;&amp;nbsp;" style="rounded=1;whiteSpace=wrap;html=1;" parent="1" vertex="1">
          <mxGeometry x="995.86" y="632.83" width="249.5" height="30" as="geometry" />
        </mxCell>
        <mxCell id="bpk7fHlp-owrhIttHWPi-197" value="&lt;b style=&quot;&quot;&gt;&lt;font style=&quot;font-size: 13px;&quot;&gt;lista de clientes&amp;nbsp; &amp;nbsp; &amp;nbsp; &lt;/font&gt;&lt;span style=&quot;font-size: 15px;&quot;&gt;&amp;nbsp; &amp;nbsp; &amp;nbsp; &amp;nbsp; &amp;nbsp; &amp;nbsp; &amp;nbsp; &amp;nbsp; &amp;nbsp;&lt;/span&gt;&lt;/b&gt;" style="rounded=1;whiteSpace=wrap;html=1;" parent="1" vertex="1">
          <mxGeometry x="993.2299999999999" y="506.83" width="249.5" height="30" as="geometry" />
        </mxCell>
        <mxCell id="bpk7fHlp-owrhIttHWPi-198" value="Gabriel Costa&amp;nbsp; &amp;nbsp; &amp;nbsp; &amp;nbsp; &amp;nbsp; &amp;nbsp; &amp;nbsp; &amp;nbsp; &amp;nbsp; &amp;nbsp; &amp;nbsp; &amp;nbsp; &amp;nbsp; &amp;nbsp;&amp;nbsp;" style="rounded=1;whiteSpace=wrap;html=1;" parent="1" vertex="1">
          <mxGeometry x="995.86" y="587.83" width="250" height="30" as="geometry" />
        </mxCell>
        <mxCell id="bpk7fHlp-owrhIttHWPi-199" value="" style="shape=image;verticalLabelPosition=bottom;labelBackgroundColor=default;verticalAlign=top;aspect=fixed;imageAspect=0;image=data:image/png,iVBORw0KGgoAAAANSUhEUgAAASAAAACvCAMAAABqzPMLAAAAilBMVEX///8AAAD29vb7+/v09PT5+fnMzMwRERHx8fGBgYGFhYXo6Oju7u7i4uJhYWGtra29vb3S0tLd3d3IyMiioqJFRUV0dHSbm5uSkpKzs7MiIiI+Pj7X19fe3t4KCgonJydpaWkwMDBOTk4aGhpZWVk1NTV5eXmOjo5aWlpmZmYsLCy5ubkdHR1CQkK3Z/yxAAAQCklEQVR4nO1dC3eqOBAmL0XBqtX6qlVra+21t///7+1MQEUIIS/be/bw7Z7tvVvIhC+TeYQwiaIWLVq0aNHi/wv22x34x5Em/zxDafqLXRTJP08Q/c0uCpqKXxNuBsFT+nvCKfs94WZgjP3eEDIq/wnTUoBWVA0LAA/RuHDgGdihzOXGMrhgNOaUxv5NlUCjOEgXBRXQQw7/WtwDl8MIBRgdHlFgGp8j8IQVlAoWoos4U2RTwtym4LDENAqgvlzyAvYMGgvKEHRRcBH56yXwI/C/MIrGVheu5MBpHHlbD17Qm6AMgepwBnODWUwLNQqsMNMu8iiFKznlvgTxm/7zyPtpLkD1hiHH6evVzq3WGOoQj9FggOTYl5+MkYsv5iEmbdZiLH1IJFK/hgTNOsfyfuHcab5HTm4eeXvQbH5xfvXF3H9GIIAbdIqSJK+GYKIiPzEoYt6xZoYE2h54KOZt/nJ+5J/phaEAdggcDsww7hS93DaU6U/Wpfx50bRpb0LTZ2Gu6kEz/8XOf8ub9ydIumVo0d+kZQ+Z88EuP3VdBNVF8wz+yzvAyFo4C7v89CaIQYooUIG8XUhOxVlh8p4xnWrAHRQsBvoIP9koj5UJgnAsgGJSFqMFiv27WCKIR3kX66eYQAuF2hsiQM1ClCtB0DhQ5vtU0kTKLgbI8DKnfu2iTK50John4TY4sSAZIEo+i8sDDO8JFgvUcmA/RAYsigTlU0uj4piR4MSAPCxItCKktkijw3jmcXz5kV3EtI4GCagyP5IFZyILGXQmIGbguxiaiSD8nINSEccpz2yzZ1QnnwinKQ2U+NI8PqRxHDfzI/0OZvxB5tfZBuUth5lfEdofTLwDrTDRgr3J+Km3P2CWGf4+9vfvV5FnhgLZn8wr0lAqjhb/Ems28oPzQOCTBMqWEJfEIjNGnq0xDhOB4aiH66IQZ66RGp19jnFJJKYYQYcSHl3T92vK4Q7ZRczAeMgu0lyH0Bjp+aE0zfoQFDE7K49vZgejR3F9LPTCLRU0j0Z09lk6GVxeCbdec5YvGQqQoqYYNOAKTOgxzHRIUG2KKpedRBxwcl+bRu0M4L9iSVAcJv65gUBD1LBQBgpE49R/gVUFrs/+jJuh6Efu0kWZA+m7COlfJDyEM5pMltP5fLGYz6fLTnLTEo9DRHU8zsJEE+m2bUP013SPwDU1t9mdTBa7V1LCYbeYJE7N1QJcvGJ9I5kcldLH3kF7CSJ2yr/Gi33Wp+eHj/5iPp3OF/2Pz0P2//bzccgu8koXO8eL9N5VesbXZj9fh5TushPosb/CrnwvRoNbDWVssDw+4++2x0Gg/kXXdZsM6/5flPC0GCUl1RcgXY7RaRFQui3EFzKw7U/qL5n0tsjf6A52lS6RgVeNdDb6QAL3o/DCTcDnIH3Vb5pCbPzxBgM5DfzSOZ2/4dg0Su98bIDF4c9vIGJTmFvPS6Ookg9hrFfDkNLnXZhZX0akx9NXpCigdBOMkJ6O+fUTmIyvmqloKR10d29h/UdA0SGot2hA8gn0WD7u6ETIQ5AsKtnbDQ7iCyiahXb7tRiCB3VQ2SkYzC9/6dDM29L6LjYnpPsz1pruCPnjNBjJAwyjZ6LJsQ0nRUzeCfnwE26Ex5WHHoDubb2i60fQQmc9AOmHwLF9FSPwHh5zefDs8YDyEfc+0sESBfMUasx91ZTNCJm63rwgpO8lXYB5uKvDP3o83RnwlAu3Oz8CPN0iwBPUo+c1P86AeXJ0uW8WZH6AE5z7t6JGL9AMHjkxBPpjGfyosbwbQ4tgFm7koOd9QgLFwss72aFhkPmVYWkdKkwD+p9pwCe5YhKUd+ij1VrWJEgQfgbMhcdwrWVIN54etoQe+WsRDw8C240Z2YZ+u/VNHpoumX4+XPDZaGOemhu8gD2RP8YXGzVo8Dh2WBgMeK+4aN5rujq2MNR9sgq84pUENtRrExfStyIIzYrhcnHH0mCZ4MtYugnYs0ngYkkQaNy3mfTVPQKXGXkP19icrAyusiWIb83U/GhIpB0oIfarSjVIzWJYW4IgXuwaeLJBsAjxFkvyFmoTxI7sTC6zJih6NwkddmRm0pY99q5JcxkDQ3tmTxC03LiANSYk/Iec55bDBEM7s6d1IAgsZePq0qdb6m+CXZjY12SYJRwIgrYbFghfGq9wRyDl/DBdQ3QgCAaxQT8CjbIa7yHih7RrGlG5EASDqI2RU1P1dcKYnPwd2ZDsDa90IQhSMm2WPg+dM91iFWDdY2+8zuBE0FAf0D7fY+XmiinZ+TYxaJgDBTgRRLUxBOSAhu24IfU303Pz1zxOBEUPunzjeE8TnUn3zTcO5iudbgQtNVYGkuQ778kY+tq4mLwZhyFuBHGNlid3nmHSgvg18EU+ja89OhEEXqBWR4f3SsOuePJ8l9SzeD/T7zoRtKiPFT/u+RY0g80DqmBjBPpk5ULQpN7Rn8K/fChj5LduBmG0eSYENmjrQFC9oRFkdadE/opHsvW5fUxezS9GI721J4g91WUTHQsD6AzjTEqJLxsvKL3YypogiEVqouXhT+wI84skFop0V0w6Sox3pMDQbqy+qlONy3t1oeLRQvqlF/pfV4XMvEJF1d0DosdW/+vq3uZpXbj8oAgAkgbpDagKmXstvKq62ERQ0ZcZETSqe216UGi/nqBuV/trFUFLr1hrr3hj10iQnqEqQWPypJa+Unh5LUHdt6auVYXUDo8J2LfCwTQTpGWoStC6ztOqHIyOoEb9URHU8QmExEERBhkQpGOoStBjzWtJRjbV4dES1NyxqpS18YKgAvSkeDFiQpAGVYJeyJtauipRDm6kB3UT3AT8pHienySoGkjfgyD3nSP30CBBy18H/q4GvSgIYqbfpjrbIB1BcVLSizobFG0ULiI4QSoblCaGGSikSVU/4klQWqkssa5L+N4svZgTQZNqwsfNa8DvFaGa9xQrN9ip8yNb2zjIhaBqHGRQiPOCP4o80oug7mu1eu6oLpZVrfYFJ6iSEWN1habiFxzrg2Elxw9FHjmAgEyJTbEnG/U1zydeqQ25qMuGZopXckkufXs4dTebt5qu1KL64JV8nGLlQP06FJcVnnCg5zZbK27WpGtf11SrnNTm01bSXVFabMEKknHEtW+kszKKWGGdTWzCzMa3GlhCCBovC3+vWzf/Ijv1L2T9VayTLPxLlb7epJvQZlxTHuSCQn1s9rj9ay6qiSAuK8xUyiXzVd0+pnVNkMsKhX58awvTzabg0gXDInf6GVasHx7R75P5gmQDQTi34gir/9zOMc2rKfXeoNtCP9yvMNGYHApdlIWSsfn6Nks6u/87MQ7E9QTB2AA/DKLU0kMvya6uxW/V5CsXQvIriFd89YaaSWWVtHoNyrjDKk9ZJ9DDmG6h0RJEhYgFlrqslADTvJnqK/xbfhYK5fGlgrdPcbTd1U9zHqeyRpmmjHam/jITEfKqDmQqpgOkI4hmxQ+xFlX5tlP9NvpR1UcU62OffY2HpaaHSzCKDVNZSbt+fuX6k3dFPgp+OGQoXkMQWmaBFdJEpa2ErGpVNK0m/7xQP7xYZtisixVc99eISB4CEWtPMRE31TLlz09QQUMrWE8Q42gosM6waslesyb8WY7ksyG8Fg7P++1sqBeXjkLMkKm5rqmsuPF5EsjBXkKq4ksQ1ikUlEfKMnwH3R6yafm93G0N+LxnzL206nPuBigOoeCCMm1L2a+v5cvBWKdvr6a7KOsIotJ9MrVDHqhWxS5Iynu9s+rP7EoQBLSxvv6hDo9kI5vKPDtvzFPZTfHpbEL0jbfK1hCEQtHhqAOWo/6ty3s5GeTFIvB5yW3387N6WUqE0z8bwgZzy4ole/NwY1Sz3leFmiBQ3ixGVFYKZFv9m9+v8pc+eZX8rPiqMKj/rEX2IZpA5yXtT1MWn89AsOVgq/L64dR4E56SILAOVJMgfzXtjtiUCMxPVMDzarhJfWwtljKMkMdvyWOPGuMpWnBxl/rhU9OEVa1BmPtlWYYK+6Y344vSetYlzmQsyym1J2A04FWup7BUWhOTIxbEdaXo6vF513CXWo0NYlSSpLxl0rhFkJY+xywkp1l9fo+t8suz+lI8J8go3LsexFCoj70wfPdYJYimaHkyhpR4at4A1y95enp1IpEfP+Djh1hdU1bwZrFZwnA5iqHozgyLHlQIgqkFQ4MM1fAzItvGCZKUPzg8H4gi/b1PJr8kXXzBIw8WNF+H5vkso4X66lPybHJrmSAaCx5nNc5r7ngz+Wh1UZaezzLhyQ/tQoiK4WGE88u8pXzF+saqvhrFQiWCaIz6T/OsV4WF0Vtfui3PwyxcoX78QAy0x8O35FE9VsmuZOg2qpsYfZRUIkhIguL6SsmPhl/rjiqbGFCHGo+4agCkqWsZHeIant1qgDyZ6vapjD4yLxGEa3O01n9F6OINtyB+Vl5dgQ4Jv5PF2IEc8YgO4Nr+CCVcsC91aGOw37pMEMxs3eLlgihewigRV+tIcH3W3Yw+OTE5+6nnmm2OicF0uKnd8RHJ5Z/64LRj8Tn8iJAX02uNW8SFMhoHOSUM0ddm3RKdYQEYWwpNpfbEquBNj5yCVhMenCurgPkJVCeH7R02GtW7GfZttUnc8vLG5rZkl/8x3CkZ6d+Qn948oAmwkR60zOiePN/hhPEXq+3zesysP2ZeO9YWVGFn8RGcDTrB+thzqFcyCValaxbc5J8xCqRDbhURv5wreN5idqdqMghgKIAd+uPYw68Q48M+A9WrVAP0/N3T7MffziMI4/PpWcss+Sbd4OW+ilh3yclrAq+35OT8GeF4Q569Ko91up71rJuRPHuVtpr6laNOTl4FJ0H6PvjpYBWAkds5SqH+VdPBgM0cp1m6Dxgq6LAkjsMIN3a9C44OCXlzqucBN3bvXI78jAEowoO1IVnDAD4EMAAv0M4fazs4hrt2P3ZuhFQiu2MqEpiZoery4fkTPas9QQP8XPRHj/gRH9hJY30YID39YPkPt5P+gtJ/xPoUIZ/5j8kGPTF6QIUL6l4fwViTneIL4Qro6NOKzYB4wXE8HBuivnH/hB0MfsrXGgfosGgwhZn0/m/Qg0inuLv+1BvVuP14NMNvoFfTuwQf6QKlv/ZGNatOaSZ9O7x/6KPBuCc/v3ybTUeDy7tJJujLaL6T3yas+ncM7Tsf8jPev7Pp5Co9Aulf85mUvj3eNbEww3j+fv5G9fC0f//cP+UHHJLV+/Tu/QPpbxfp7yD9+zX/6/bz/tJNET8O+7vnwpr95nnXXz7+kG6n62H/z6Eo/Xt3XL4EPhPPH0zwdLAej9eDVP8xyH2k0zh9GUvpdVsBWrRo0aJFixYtWrRo0aJFixYtWrRo0aJFixYtWrRo0aJFixYt/odoLony6/jd3Rxp8q9vJhFp4vmJiw948pvSTcCM64ffA76lUu8PLE/ye9KxtJdPIdAfQBx51qjwAdbfo0EGKE7vNMyydl2QMawpZP8fWKKcM5ArzY8AAAAASUVORK5CYII=;" parent="1" vertex="1">
          <mxGeometry x="1178.23" y="277.4199999999999" width="80" height="48.61" as="geometry" />
        </mxCell>
        <mxCell id="bpk7fHlp-owrhIttHWPi-200" value="" style="verticalLabelPosition=bottom;verticalAlign=top;html=1;shadow=0;dashed=0;strokeWidth=1;shape=mxgraph.ios.iAddIcon;fillColor=#7AdF78;fillColor2=#1A9917;strokeColor=#ffffff;sketch=0;" parent="1" vertex="1">
          <mxGeometry x="1008.2299999999999" y="347.83" width="30" height="30" as="geometry" />
        </mxCell>
        <mxCell id="bpk7fHlp-owrhIttHWPi-201" value="cadastrar cliente" style="rounded=1;whiteSpace=wrap;html=1;" parent="1" vertex="1">
          <mxGeometry x="1046.7400000000002" y="350.58" width="201.49" height="30" as="geometry" />
        </mxCell>
        <mxCell id="bpk7fHlp-owrhIttHWPi-202" value="nome :" style="text;html=1;align=center;verticalAlign=middle;whiteSpace=wrap;rounded=0;" parent="1" vertex="1">
          <mxGeometry x="985.86" y="380.58" width="80.75" height="36.3" as="geometry" />
        </mxCell>
        <mxCell id="bpk7fHlp-owrhIttHWPi-203" value="endereÃ§o:" style="text;html=1;align=center;verticalAlign=middle;whiteSpace=wrap;rounded=0;" parent="1" vertex="1">
          <mxGeometry x="997.2299999999999" y="416.87999999999994" width="70" height="30.65" as="geometry" />
        </mxCell>
        <mxCell id="bpk7fHlp-owrhIttHWPi-204" value="" style="rounded=1;whiteSpace=wrap;html=1;" parent="1" vertex="1">
          <mxGeometry x="1066.6100000000001" y="386.59" width="160" height="24.28" as="geometry" />
        </mxCell>
        <mxCell id="bpk7fHlp-owrhIttHWPi-205" value="" style="rounded=1;whiteSpace=wrap;html=1;" parent="1" vertex="1">
          <mxGeometry x="1067.23" y="416.87999999999994" width="160" height="25.33" as="geometry" />
        </mxCell>
        <mxCell id="bpk7fHlp-owrhIttHWPi-206" value="cpf:" style="text;html=1;align=center;verticalAlign=middle;whiteSpace=wrap;rounded=0;" parent="1" vertex="1">
          <mxGeometry x="1118.23" y="447.53000000000003" width="60" height="30" as="geometry" />
        </mxCell>
        <mxCell id="bpk7fHlp-owrhIttHWPi-207" value="gmail:" style="text;html=1;align=center;verticalAlign=middle;whiteSpace=wrap;rounded=0;" parent="1" vertex="1">
          <mxGeometry x="993.2299999999999" y="448.1799999999999" width="60" height="30" as="geometry" />
        </mxCell>
        <mxCell id="bpk7fHlp-owrhIttHWPi-208" value="" style="rounded=1;whiteSpace=wrap;html=1;" parent="1" vertex="1">
          <mxGeometry x="1046.7400000000002" y="448.1799999999999" width="90" height="29.65" as="geometry" />
        </mxCell>
        <mxCell id="bpk7fHlp-owrhIttHWPi-209" value="" style="rounded=1;whiteSpace=wrap;html=1;" parent="1" vertex="1">
          <mxGeometry x="1158.23" y="448.53000000000003" width="80" height="29.3" as="geometry" />
        </mxCell>
        <mxCell id="bpk7fHlp-owrhIttHWPi-210" style="edgeStyle=orthogonalEdgeStyle;rounded=0;orthogonalLoop=1;jettySize=auto;html=1;exitX=0.5;exitY=1;exitDx=0;exitDy=0;" parent="1" source="bpk7fHlp-owrhIttHWPi-204" target="bpk7fHlp-owrhIttHWPi-204" edge="1">
          <mxGeometry relative="1" as="geometry" />
        </mxCell>
        <mxCell id="bpk7fHlp-owrhIttHWPi-212" value="&amp;nbsp; Larissa Gomes&amp;nbsp; &amp;nbsp; &amp;nbsp; &amp;nbsp; &amp;nbsp; &amp;nbsp; &amp;nbsp; &amp;nbsp; &amp;nbsp; &amp;nbsp; &amp;nbsp; &amp;nbsp; &amp;nbsp; &amp;nbsp;&amp;nbsp;" style="rounded=1;whiteSpace=wrap;html=1;" parent="1" vertex="1">
          <mxGeometry x="997.2299999999999" y="546.83" width="249.5" height="30" as="geometry" />
        </mxCell>
        <mxCell id="bpk7fHlp-owrhIttHWPi-213" value="procurar cliente" style="rounded=1;whiteSpace=wrap;html=1;" parent="1" vertex="1">
          <mxGeometry x="1047.73" y="289.03000000000003" width="130.5" height="38.8" as="geometry" />
        </mxCell>
        <mxCell id="bpk7fHlp-owrhIttHWPi-215" value="" style="html=1;shadow=0;dashed=0;align=center;verticalAlign=middle;shape=mxgraph.arrows2.jumpInArrow;dy=15;dx=38;arrowHead=55;" parent="1" vertex="1">
          <mxGeometry x="1238.23" y="497.84" width="125.26" height="69" as="geometry" />
        </mxCell>
        <mxCell id="bpk7fHlp-owrhIttHWPi-217" value="" style="rounded=1;whiteSpace=wrap;html=1;direction=south;" parent="1" vertex="1">
          <mxGeometry x="1358.23" y="232.82999999999998" width="288.87" height="540" as="geometry" />
        </mxCell>
        <mxCell id="bpk7fHlp-owrhIttHWPi-218" value="" style="shape=image;verticalLabelPosition=bottom;labelBackgroundColor=default;verticalAlign=top;aspect=fixed;imageAspect=0;image=data:image/png,iVBORw0KGgoAAAANSUhEUgAAAL4AAACUCAMAAAAanWP/AAAAY1BMVEX///8AAAAEBAT6+vrs7Ozp6en39/fR0dHz8/MnJyfv7+/Hx8c+Pj5fX1/ExMS5ubnZ2dlTU1NwcHDf39+Li4tra2sUFBSampo0NDRGRkaEhISvr68uLi6jo6NLS0sbGxt6enqxsgbYAAAGvUlEQVR4nO1c2bLaMAy92RPIvi+E5P+/soRyqWU7kEVyygznrTO9ysGWtVnyz88XX3zxxRdfrIZtxecw6rouikInc4+mswZZlxfJ1a89b7jBu/hNEoy9YxzNawFOUVGWmgx62VTZ0fRewbW6q5Q58xtyxzyaphxWNL7h/hfXLv7/1Mjqg0XkJ/j5+Wi6EG71Tmsg6tQ5mjKDzl9FfsIw2kezfiBet/K/KLv/4QeY/SbyE4rjNcgpbtZwK/9LdzD7qN689ne01pHsc7mDXYrbtgUHOmLZmZ00SfcuTdufY8u1XTNzojyovbkfWh7lA6xEqvZlIgvPsqgNZhQtPIL8Tya42em3+G03p87uuUo02S8+gr8lCxLqPn5pzLOokPzVEKki/YSRSHj05ttgzD034qZ5ytff5yloWr4wpwpF9RkUn18xNl7hQu3WE7QuJiQroOcXsKxWBTChYLQShelwyK9es/bwZdz26dpIwHPm2/yxDdZvvV3x+qMq/rFbnv2m9LXjpPiK1D/ivptuTF2jAapPoUT9T5ziF5sldTAO0pWoD6c6wWm7KC7TaRREzzFcsmSPxhrc+e3RWM4CBi073b3Bhdzk2h9Bzd+rricmiNZ1LUXhOA+DcTc3tznurpeFA3C/xMvvgJTD23/W7BzsZo7AcR7cWcOwdBlQf5+0gJuBOLlGKbWCFSlJjQ90uEhVJrAklK7XBgliivQlsCYXwsTLAouP9iEQ+1RYUkWAILFAc/EgdkjpDi+I8/EOmQm0hy5uZj/j45WHDZB6kVVNHLDJiIJDVnBOVfZnLbSOaaCBO0l2ROAvwZpNVBV1gfZQRf1sfaxGlQxsD9Gdi8WGa9tTRBkiNgciOruguoObl4LbvRZV9BMgs8a1ziabwwWoop+o6PIKYPk9VNFPgMQCWTZbvtCRZT8wEtIHS0Pjt1j6F2TZoGRNQz9lvtAgy+5Zs0Djdln6V2TZHRvz04TMLP0EWbZi+j6ybKA89Ed3QJYNyg009EFpGVk2MJw0rW6q3Ba27AdA0IAblNvsucKNxZ8Alzm498igw4AoZDuzATNuOcZhs0WigNn0yZYoYvWSqs7G5hQ45dlfgGSRqtDD5hQepvKf2JM7UKXqYI0wlT9mT1VAVWOOWfoFom8ENeaKrEGb/UqNpz2w7k7X2gMuRfG0J2PFNnQlWlCLTNA6MEHE0NJdr5zAjTpWOclmhVL2xcBKNlYtFQTLDWVb9hksFM7ymxdWJum9Omze1FHUFGg+cUsnbGHBuAM/g3v6K+1IQswUyXWt3K+oJuxQoW6JaVn6CA6+hx2RGBRfIYbts3tjczYO0UkvdR/gesH2mekTuJHWPPp5NNMDC3bZE6K4XD+5ik5yvn9ue4zC9fJoBdWdIgvY+q5r/tb0wq5gGzNiDPsKIOy/4bqNP99GuE8PV0Bo391i/k98K7Ei3b+d3pRrX6/Xf1c6O6KikfPnbvyh2g5rM7zzzJzjujGArQiFKax0TfJiV8L4xC+WTpDsgzhnWS/f+Dh5MeWYqrCeP5zJvo9sLXsLwH0zEx4oGWOUkSicd1tvZMLYiwBfxRijKV3EMXq1dnaYL5kwrVXM8Z6k/PUgD2e016nGuRPL7UitYgxNmGF5wGuKnl8/K2qTWq42TSjOMXpKHNirOW8vaPsoDMOoy1P/hb4XFiwfPTZDiQOLLjtGvaeGfa2dNC0aRCl0pU4GzvLHJWTwujtJo5McilzFayCWMD62AsFvjGn0kmHqUYUDMJyL+OVlqP7xM2THSI0Dc3PJp9+DmzmSCanVvCaTpbMh2AxKXzCNUjei6B2Bc7pKhYJejC4mNwLtz+1fpaI5aiNsF784kcqn8aVu/GGb6GFnb99GmjC0zlxIzNdN/v7/XtljRG787tmMInw5jS99KId2GIqD1QX1ZRA4lF6d5O8jSakCYrduvUMWVW0RBEnT+H5zTYJizDtnURZrCe8nTJFFccBzXK6ZxY7jxLF1WqG9wiD5HRumyQ9CLDxDMYHwuhQZmdQFep/DX269jnlIZgNmgkBVDmw3Qqn9HNSU4BAgf/KqzD9l/TvR8U2gHgZHw0wVIPmU9ZclobqiEhwGcnkJ43r8U3rLUMn461rzIQ7AmMmh1b9ktRHyKirVdAg+Uhl/9QnAZsiLeN6nHF9T+l6mTt+6gQRLlr5r49G0FkOafm19T+oA3NJfQX3Go0mtQCamj0prJ3vh8OUf1O57evD8iaZbyBDC9PFTos4nQPp49PPHG/DvEk28GfgE2H16rS9NUR36cvMOnGLnHH9KsPnFF1988TH4A3yhS5GDYg1sAAAAAElFTkSuQmCC;" parent="1" vertex="1">
          <mxGeometry x="1379.4700000000003" y="286.03" width="38.51" height="30" as="geometry" />
        </mxCell>
        <mxCell id="bpk7fHlp-owrhIttHWPi-219" value="&amp;nbsp; Larissa Gomes&amp;nbsp; &amp;nbsp; &amp;nbsp; &amp;nbsp; &amp;nbsp; &amp;nbsp; &amp;nbsp; &amp;nbsp; &amp;nbsp; &amp;nbsp; &amp;nbsp; &amp;nbsp; &amp;nbsp; &amp;nbsp;&amp;nbsp;" style="rounded=1;whiteSpace=wrap;html=1;" parent="1" vertex="1">
          <mxGeometry x="1369.4700000000003" y="490.96" width="249.5" height="30" as="geometry" />
        </mxCell>
        <mxCell id="bpk7fHlp-owrhIttHWPi-220" value="&lt;b style=&quot;&quot;&gt;&lt;font style=&quot;font-size: 13px;&quot;&gt;lista de clientes&amp;nbsp; &amp;nbsp; &amp;nbsp; &lt;/font&gt;&lt;span style=&quot;font-size: 15px;&quot;&gt;&amp;nbsp; &amp;nbsp; &amp;nbsp; &amp;nbsp; &amp;nbsp; &amp;nbsp; &amp;nbsp; &amp;nbsp; &amp;nbsp;&lt;/span&gt;&lt;/b&gt;" style="rounded=1;whiteSpace=wrap;html=1;" parent="1" vertex="1">
          <mxGeometry x="1369.4700000000003" y="347.83" width="249.5" height="30" as="geometry" />
        </mxCell>
        <mxCell id="bpk7fHlp-owrhIttHWPi-221" value="" style="shape=image;verticalLabelPosition=bottom;labelBackgroundColor=default;verticalAlign=top;aspect=fixed;imageAspect=0;image=data:image/png,iVBORw0KGgoAAAANSUhEUgAAASAAAACvCAMAAABqzPMLAAAAilBMVEX///8AAAD29vb7+/v09PT5+fnMzMwRERHx8fGBgYGFhYXo6Oju7u7i4uJhYWGtra29vb3S0tLd3d3IyMiioqJFRUV0dHSbm5uSkpKzs7MiIiI+Pj7X19fe3t4KCgonJydpaWkwMDBOTk4aGhpZWVk1NTV5eXmOjo5aWlpmZmYsLCy5ubkdHR1CQkK3Z/yxAAAQCklEQVR4nO1dC3eqOBAmL0XBqtX6qlVra+21t///7+1MQEUIIS/be/bw7Z7tvVvIhC+TeYQwiaIWLVq0aNHi/wv22x34x5Em/zxDafqLXRTJP08Q/c0uCpqKXxNuBsFT+nvCKfs94WZgjP3eEDIq/wnTUoBWVA0LAA/RuHDgGdihzOXGMrhgNOaUxv5NlUCjOEgXBRXQQw7/WtwDl8MIBRgdHlFgGp8j8IQVlAoWoos4U2RTwtym4LDENAqgvlzyAvYMGgvKEHRRcBH56yXwI/C/MIrGVheu5MBpHHlbD17Qm6AMgepwBnODWUwLNQqsMNMu8iiFKznlvgTxm/7zyPtpLkD1hiHH6evVzq3WGOoQj9FggOTYl5+MkYsv5iEmbdZiLH1IJFK/hgTNOsfyfuHcab5HTm4eeXvQbH5xfvXF3H9GIIAbdIqSJK+GYKIiPzEoYt6xZoYE2h54KOZt/nJ+5J/phaEAdggcDsww7hS93DaU6U/Wpfx50bRpb0LTZ2Gu6kEz/8XOf8ub9ydIumVo0d+kZQ+Z88EuP3VdBNVF8wz+yzvAyFo4C7v89CaIQYooUIG8XUhOxVlh8p4xnWrAHRQsBvoIP9koj5UJgnAsgGJSFqMFiv27WCKIR3kX66eYQAuF2hsiQM1ClCtB0DhQ5vtU0kTKLgbI8DKnfu2iTK50John4TY4sSAZIEo+i8sDDO8JFgvUcmA/RAYsigTlU0uj4piR4MSAPCxItCKktkijw3jmcXz5kV3EtI4GCagyP5IFZyILGXQmIGbguxiaiSD8nINSEccpz2yzZ1QnnwinKQ2U+NI8PqRxHDfzI/0OZvxB5tfZBuUth5lfEdofTLwDrTDRgr3J+Km3P2CWGf4+9vfvV5FnhgLZn8wr0lAqjhb/Ems28oPzQOCTBMqWEJfEIjNGnq0xDhOB4aiH66IQZ66RGp19jnFJJKYYQYcSHl3T92vK4Q7ZRczAeMgu0lyH0Bjp+aE0zfoQFDE7K49vZgejR3F9LPTCLRU0j0Z09lk6GVxeCbdec5YvGQqQoqYYNOAKTOgxzHRIUG2KKpedRBxwcl+bRu0M4L9iSVAcJv65gUBD1LBQBgpE49R/gVUFrs/+jJuh6Efu0kWZA+m7COlfJDyEM5pMltP5fLGYz6fLTnLTEo9DRHU8zsJEE+m2bUP013SPwDU1t9mdTBa7V1LCYbeYJE7N1QJcvGJ9I5kcldLH3kF7CSJ2yr/Gi33Wp+eHj/5iPp3OF/2Pz0P2//bzccgu8koXO8eL9N5VesbXZj9fh5TushPosb/CrnwvRoNbDWVssDw+4++2x0Gg/kXXdZsM6/5flPC0GCUl1RcgXY7RaRFQui3EFzKw7U/qL5n0tsjf6A52lS6RgVeNdDb6QAL3o/DCTcDnIH3Vb5pCbPzxBgM5DfzSOZ2/4dg0Su98bIDF4c9vIGJTmFvPS6Ookg9hrFfDkNLnXZhZX0akx9NXpCigdBOMkJ6O+fUTmIyvmqloKR10d29h/UdA0SGot2hA8gn0WD7u6ETIQ5AsKtnbDQ7iCyiahXb7tRiCB3VQ2SkYzC9/6dDM29L6LjYnpPsz1pruCPnjNBjJAwyjZ6LJsQ0nRUzeCfnwE26Ex5WHHoDubb2i60fQQmc9AOmHwLF9FSPwHh5zefDs8YDyEfc+0sESBfMUasx91ZTNCJm63rwgpO8lXYB5uKvDP3o83RnwlAu3Oz8CPN0iwBPUo+c1P86AeXJ0uW8WZH6AE5z7t6JGL9AMHjkxBPpjGfyosbwbQ4tgFm7koOd9QgLFwss72aFhkPmVYWkdKkwD+p9pwCe5YhKUd+ij1VrWJEgQfgbMhcdwrWVIN54etoQe+WsRDw8C240Z2YZ+u/VNHpoumX4+XPDZaGOemhu8gD2RP8YXGzVo8Dh2WBgMeK+4aN5rujq2MNR9sgq84pUENtRrExfStyIIzYrhcnHH0mCZ4MtYugnYs0ngYkkQaNy3mfTVPQKXGXkP19icrAyusiWIb83U/GhIpB0oIfarSjVIzWJYW4IgXuwaeLJBsAjxFkvyFmoTxI7sTC6zJih6NwkddmRm0pY99q5JcxkDQ3tmTxC03LiANSYk/Iec55bDBEM7s6d1IAgsZePq0qdb6m+CXZjY12SYJRwIgrYbFghfGq9wRyDl/DBdQ3QgCAaxQT8CjbIa7yHih7RrGlG5EASDqI2RU1P1dcKYnPwd2ZDsDa90IQhSMm2WPg+dM91iFWDdY2+8zuBE0FAf0D7fY+XmiinZ+TYxaJgDBTgRRLUxBOSAhu24IfU303Pz1zxOBEUPunzjeE8TnUn3zTcO5iudbgQtNVYGkuQ778kY+tq4mLwZhyFuBHGNlid3nmHSgvg18EU+ja89OhEEXqBWR4f3SsOuePJ8l9SzeD/T7zoRtKiPFT/u+RY0g80DqmBjBPpk5ULQpN7Rn8K/fChj5LduBmG0eSYENmjrQFC9oRFkdadE/opHsvW5fUxezS9GI721J4g91WUTHQsD6AzjTEqJLxsvKL3YypogiEVqouXhT+wI84skFop0V0w6Sox3pMDQbqy+qlONy3t1oeLRQvqlF/pfV4XMvEJF1d0DosdW/+vq3uZpXbj8oAgAkgbpDagKmXstvKq62ERQ0ZcZETSqe216UGi/nqBuV/trFUFLr1hrr3hj10iQnqEqQWPypJa+Unh5LUHdt6auVYXUDo8J2LfCwTQTpGWoStC6ztOqHIyOoEb9URHU8QmExEERBhkQpGOoStBjzWtJRjbV4dES1NyxqpS18YKgAvSkeDFiQpAGVYJeyJtauipRDm6kB3UT3AT8pHienySoGkjfgyD3nSP30CBBy18H/q4GvSgIYqbfpjrbIB1BcVLSizobFG0ULiI4QSoblCaGGSikSVU/4klQWqkssa5L+N4svZgTQZNqwsfNa8DvFaGa9xQrN9ip8yNb2zjIhaBqHGRQiPOCP4o80oug7mu1eu6oLpZVrfYFJ6iSEWN1habiFxzrg2Elxw9FHjmAgEyJTbEnG/U1zydeqQ25qMuGZopXckkufXs4dTebt5qu1KL64JV8nGLlQP06FJcVnnCg5zZbK27WpGtf11SrnNTm01bSXVFabMEKknHEtW+kszKKWGGdTWzCzMa3GlhCCBovC3+vWzf/Ijv1L2T9VayTLPxLlb7epJvQZlxTHuSCQn1s9rj9ay6qiSAuK8xUyiXzVd0+pnVNkMsKhX58awvTzabg0gXDInf6GVasHx7R75P5gmQDQTi34gir/9zOMc2rKfXeoNtCP9yvMNGYHApdlIWSsfn6Nks6u/87MQ7E9QTB2AA/DKLU0kMvya6uxW/V5CsXQvIriFd89YaaSWWVtHoNyrjDKk9ZJ9DDmG6h0RJEhYgFlrqslADTvJnqK/xbfhYK5fGlgrdPcbTd1U9zHqeyRpmmjHam/jITEfKqDmQqpgOkI4hmxQ+xFlX5tlP9NvpR1UcU62OffY2HpaaHSzCKDVNZSbt+fuX6k3dFPgp+OGQoXkMQWmaBFdJEpa2ErGpVNK0m/7xQP7xYZtisixVc99eISB4CEWtPMRE31TLlz09QQUMrWE8Q42gosM6waslesyb8WY7ksyG8Fg7P++1sqBeXjkLMkKm5rqmsuPF5EsjBXkKq4ksQ1ikUlEfKMnwH3R6yafm93G0N+LxnzL206nPuBigOoeCCMm1L2a+v5cvBWKdvr6a7KOsIotJ9MrVDHqhWxS5Iynu9s+rP7EoQBLSxvv6hDo9kI5vKPDtvzFPZTfHpbEL0jbfK1hCEQtHhqAOWo/6ty3s5GeTFIvB5yW3387N6WUqE0z8bwgZzy4ole/NwY1Sz3leFmiBQ3ixGVFYKZFv9m9+v8pc+eZX8rPiqMKj/rEX2IZpA5yXtT1MWn89AsOVgq/L64dR4E56SILAOVJMgfzXtjtiUCMxPVMDzarhJfWwtljKMkMdvyWOPGuMpWnBxl/rhU9OEVa1BmPtlWYYK+6Y344vSetYlzmQsyym1J2A04FWup7BUWhOTIxbEdaXo6vF513CXWo0NYlSSpLxl0rhFkJY+xywkp1l9fo+t8suz+lI8J8go3LsexFCoj70wfPdYJYimaHkyhpR4at4A1y95enp1IpEfP+Djh1hdU1bwZrFZwnA5iqHozgyLHlQIgqkFQ4MM1fAzItvGCZKUPzg8H4gi/b1PJr8kXXzBIw8WNF+H5vkso4X66lPybHJrmSAaCx5nNc5r7ngz+Wh1UZaezzLhyQ/tQoiK4WGE88u8pXzF+saqvhrFQiWCaIz6T/OsV4WF0Vtfui3PwyxcoX78QAy0x8O35FE9VsmuZOg2qpsYfZRUIkhIguL6SsmPhl/rjiqbGFCHGo+4agCkqWsZHeIant1qgDyZ6vapjD4yLxGEa3O01n9F6OINtyB+Vl5dgQ4Jv5PF2IEc8YgO4Nr+CCVcsC91aGOw37pMEMxs3eLlgihewigRV+tIcH3W3Yw+OTE5+6nnmm2OicF0uKnd8RHJ5Z/64LRj8Tn8iJAX02uNW8SFMhoHOSUM0ddm3RKdYQEYWwpNpfbEquBNj5yCVhMenCurgPkJVCeH7R02GtW7GfZttUnc8vLG5rZkl/8x3CkZ6d+Qn948oAmwkR60zOiePN/hhPEXq+3zesysP2ZeO9YWVGFn8RGcDTrB+thzqFcyCValaxbc5J8xCqRDbhURv5wreN5idqdqMghgKIAd+uPYw68Q48M+A9WrVAP0/N3T7MffziMI4/PpWcss+Sbd4OW+ilh3yclrAq+35OT8GeF4Q569Ko91up71rJuRPHuVtpr6laNOTl4FJ0H6PvjpYBWAkds5SqH+VdPBgM0cp1m6Dxgq6LAkjsMIN3a9C44OCXlzqucBN3bvXI78jAEowoO1IVnDAD4EMAAv0M4fazs4hrt2P3ZuhFQiu2MqEpiZoery4fkTPas9QQP8XPRHj/gRH9hJY30YID39YPkPt5P+gtJ/xPoUIZ/5j8kGPTF6QIUL6l4fwViTneIL4Qro6NOKzYB4wXE8HBuivnH/hB0MfsrXGgfosGgwhZn0/m/Qg0inuLv+1BvVuP14NMNvoFfTuwQf6QKlv/ZGNatOaSZ9O7x/6KPBuCc/v3ybTUeDy7tJJujLaL6T3yas+ncM7Tsf8jPev7Pp5Co9Aulf85mUvj3eNbEww3j+fv5G9fC0f//cP+UHHJLV+/Tu/QPpbxfp7yD9+zX/6/bz/tJNET8O+7vnwpr95nnXXz7+kG6n62H/z6Eo/Xt3XL4EPhPPH0zwdLAej9eDVP8xyH2k0zh9GUvpdVsBWrRo0aJFixYtWrRo0aJFixYtWrRo0aJFixYtWrRo0aJFixYt/odoLony6/jd3Rxp8q9vJhFp4vmJiw948pvSTcCM64ffA76lUu8PLE/ye9KxtJdPIdAfQBx51qjwAdbfo0EGKE7vNMyydl2QMawpZP8fWKKcM5ArzY8AAAAASUVORK5CYII=;" parent="1" vertex="1">
          <mxGeometry x="1549.4700000000003" y="267.41999999999996" width="80" height="48.61" as="geometry" />
        </mxCell>
        <mxCell id="bpk7fHlp-owrhIttHWPi-222" style="edgeStyle=orthogonalEdgeStyle;rounded=0;orthogonalLoop=1;jettySize=auto;html=1;exitX=0.5;exitY=1;exitDx=0;exitDy=0;" parent="1" edge="1">
          <mxGeometry relative="1" as="geometry">
            <mxPoint x="1517.85" y="400.86999999999995" as="sourcePoint" />
            <mxPoint x="1517.85" y="400.86999999999995" as="targetPoint" />
          </mxGeometry>
        </mxCell>
        <mxCell id="bpk7fHlp-owrhIttHWPi-224" value="&lt;ul&gt;&lt;li&gt;Carlos Henrique&amp;nbsp; &amp;nbsp; &amp;nbsp; &amp;nbsp; &amp;nbsp; &amp;nbsp; &amp;nbsp; &amp;nbsp; &amp;nbsp; &amp;nbsp; &amp;nbsp; &amp;nbsp; &amp;nbsp; &amp;nbsp; &amp;nbsp; &amp;nbsp; &amp;nbsp; &amp;nbsp;&amp;nbsp;&lt;/li&gt;&lt;/ul&gt;" style="rounded=1;whiteSpace=wrap;html=1;" parent="1" vertex="1">
          <mxGeometry x="1369.4700000000003" y="408.53" width="249.5" height="30" as="geometry" />
        </mxCell>
        <mxCell id="bpk7fHlp-owrhIttHWPi-225" value="Carlos Henrique" style="rounded=1;whiteSpace=wrap;html=1;" parent="1" vertex="1">
          <mxGeometry x="1418.9700000000003" y="279.03" width="130.5" height="38.8" as="geometry" />
        </mxCell>
        <mxCell id="bpk7fHlp-owrhIttHWPi-226" value="&amp;nbsp; Larissa Gomes&amp;nbsp; &amp;nbsp; &amp;nbsp; &amp;nbsp; &amp;nbsp; &amp;nbsp; &amp;nbsp; &amp;nbsp; &amp;nbsp; &amp;nbsp; &amp;nbsp; &amp;nbsp; &amp;nbsp; &amp;nbsp;&amp;nbsp;" style="rounded=1;whiteSpace=wrap;html=1;" parent="1" vertex="1">
          <mxGeometry x="1369.4700000000003" y="450.65999999999997" width="249.5" height="30" as="geometry" />
        </mxCell>
        <mxCell id="bpk7fHlp-owrhIttHWPi-228" value="&amp;nbsp; Larissa Gomes&amp;nbsp; &amp;nbsp; &amp;nbsp; &amp;nbsp; &amp;nbsp; &amp;nbsp; &amp;nbsp; &amp;nbsp; &amp;nbsp; &amp;nbsp; &amp;nbsp; &amp;nbsp; &amp;nbsp; &amp;nbsp;&amp;nbsp;" style="rounded=1;whiteSpace=wrap;html=1;" parent="1" vertex="1">
          <mxGeometry x="1363.4900000000002" y="634.71" width="249.5" height="30" as="geometry" />
        </mxCell>
        <mxCell id="bpk7fHlp-owrhIttHWPi-230" value="" style="whiteSpace=wrap;html=1;shape=mxgraph.basic.loud_callout" parent="1" vertex="1">
          <mxGeometry x="1232.73" y="561.83" width="10" height="12" as="geometry" />
        </mxCell>
        <mxCell id="bpk7fHlp-owrhIttHWPi-231" value="" style="html=1;shadow=0;dashed=0;align=center;verticalAlign=middle;shape=mxgraph.arrows2.jumpInArrow;dy=15;dx=38;arrowHead=55;" parent="1" vertex="1">
          <mxGeometry x="1235.9700000000003" y="490.83" width="128.52" height="79.89" as="geometry" />
        </mxCell>
        <mxCell id="bpk7fHlp-owrhIttHWPi-232" value="Larissa Gomes&amp;nbsp; &amp;nbsp; &amp;nbsp; &amp;nbsp; &amp;nbsp; &amp;nbsp; &amp;nbsp; &amp;nbsp; &amp;nbsp; &amp;nbsp; &amp;nbsp; &amp;nbsp; &amp;nbsp;&amp;nbsp;" style="rounded=1;whiteSpace=wrap;html=1;" parent="1" vertex="1">
          <mxGeometry x="1368.9700000000003" y="530.96" width="250" height="30" as="geometry" />
        </mxCell>
        <mxCell id="bpk7fHlp-owrhIttHWPi-234" value="endereÃ§o:" style="text;html=1;align=center;verticalAlign=middle;whiteSpace=wrap;rounded=0;" parent="1" vertex="1">
          <mxGeometry x="1368.2300000000005" y="565.96" width="60.74" height="25" as="geometry" />
        </mxCell>
        <mxCell id="bpk7fHlp-owrhIttHWPi-235" value="" style="rounded=1;whiteSpace=wrap;html=1;" parent="1" vertex="1">
          <mxGeometry x="1423.9700000000003" y="565.96" width="65" height="25" as="geometry" />
        </mxCell>
        <mxCell id="bpk7fHlp-owrhIttHWPi-236" value="cpf:" style="text;html=1;align=center;verticalAlign=middle;whiteSpace=wrap;rounded=0;" parent="1" vertex="1">
          <mxGeometry x="1478.9700000000003" y="560.96" width="60" height="30" as="geometry" />
        </mxCell>
        <mxCell id="bpk7fHlp-owrhIttHWPi-237" value="" style="rounded=1;whiteSpace=wrap;html=1;" parent="1" vertex="1">
          <mxGeometry x="1526.9700000000003" y="565.96" width="62" height="25" as="geometry" />
        </mxCell>
        <mxCell id="bpk7fHlp-owrhIttHWPi-238" value="gmai" style="text;html=1;align=center;verticalAlign=middle;whiteSpace=wrap;rounded=0;" parent="1" vertex="1">
          <mxGeometry x="1358.2300000000005" y="590.96" width="60" height="30" as="geometry" />
        </mxCell>
        <mxCell id="bpk7fHlp-owrhIttHWPi-239" value="" style="rounded=1;whiteSpace=wrap;html=1;" parent="1" vertex="1">
          <mxGeometry x="1418.2300000000005" y="595.96" width="100" height="25.5" as="geometry" />
        </mxCell>
        <mxCell id="bpk7fHlp-owrhIttHWPi-240" value=":" style="text;html=1;align=center;verticalAlign=middle;whiteSpace=wrap;rounded=0;" parent="1" vertex="1">
          <mxGeometry x="1378.1000000000004" y="590.96" width="60" height="30" as="geometry" />
        </mxCell>
        <mxCell id="bpk7fHlp-owrhIttHWPi-241" style="edgeStyle=orthogonalEdgeStyle;rounded=0;orthogonalLoop=1;jettySize=auto;html=1;exitX=0;exitY=0.51;exitDx=0;exitDy=0;exitPerimeter=0;entryX=0.49;entryY=0;entryDx=0;entryDy=0;entryPerimeter=0;" parent="1" source="bpk7fHlp-owrhIttHWPi-230" target="bpk7fHlp-owrhIttHWPi-230" edge="1">
          <mxGeometry relative="1" as="geometry" />
        </mxCell>
        <mxCell id="bpk7fHlp-owrhIttHWPi-246" value="" style="shape=image;verticalLabelPosition=bottom;labelBackgroundColor=default;verticalAlign=top;aspect=fixed;imageAspect=0;image=data:image/png,iVBORw0KGgoAAAANSUhEUgAAARMAAAC3CAMAAAAGjUrGAAABEVBMVEX////90QD+30yqqKgzLCsjGRkgHSv9zgAhGykYCwj/4k0bFinWvET/1QD8/Pzt7e20lhgdEQ/955z+9dZAOTX95Ir/2QD++/AtJSQTAAD93F3+8sovKSv+3Tz93mj/504pJCz91B4nHx1eWVn91yz92jj96qj+++55dnUSEi3nvwmJhob94XwVBQDQz89QS0ri4eF9aCHRrRDyyAS6uLgAAACcmZn9663+9NGQdx795pVBOCxqXTL22EqZhjmHhIOcghxTRia4trZgVDJyXyKsjhlnY2I+NSlpWCReV0zJtFg/O0JLPycsKTi2olLHpRKJch/977z944JRSTu0nkB6ajTixkaLeTfIsEGlkDvrzkjEMEomAAAIoklEQVR4nO2c62LSSBSAkxBICwpSWqAlhQSBttKb1S0VF22tl3XXvVRXV33/B9k5ZyYQLklmMJRizvfDhUBh5ttzmYQkmkYQBEEQBEEQBEEQBEEQBEEQBEEQBEEQBEEQBEEQBEEQBEEQBEEQxN3ltHueOi4sexR3icL+drOZLh6Z+8fLHsodofDyqGlymkcnp8sezh0gf77uGQGq2xQqqWraNG3HceyhlWUPackcbxaZhYx5+ezxVSbnoJP1RAfK6cP1qmk6mUu9fL9c1s/+yUGwpF8te1zLgzUbMHLw7ElZR+6XB9csVIrJjRMsrfbB60fCCLDbuLbN9aQuU56aUFpzV2c+I7puZO/lkuqEFRIsrQ/K9/UxJ4aRUCf5l1hIcpf6uBFwMkimk1dpXkielCeM6G5Cc+f0BFYkuQ9nU0Z0vZVIJ/kupk3mTXkybYB2Ep08rWLaPJ5OG96Kk+ek8Ba7zbtZaSNKbNKcpGAhb+cu789Km3EnqVXi6dxHN0RtvXoUFCQ+J/lf0qvEerM7V2ineG19EGKEtWLPSRHeuxrkchnbbG6fzxskvwXUVkHL5yTzIDDD7hZPzi7fMyvFt6pBsh4dJDq04hV0Ajuuv//hmM2HKkYKD0WQRM3SWE0nhtEYvHfMdFdeyXEa201UkOir6qQNwzbe2+a2dP/pbsOa5ENYuxG4q+nEALLf/zSrktlTOEkzJQfPZCbYWkknbXRiNP5akwwUnjeZv6ODRHz6yjlxDUF2027KNORznjeRxZVjrKITT4nReOFUJfrxPvabx5KTc1fRSXvoBEZuRhnJn8DPewdvpPJG5+Xkx51YY6j9nfq3tYwRg4xZzIcrKWxiC5YrJcBuHE6sfsVjr1Tru7LztGrsLz6qfpvrU2JkzSgnhSoocSRasIcRi5ON8WFsSUqxSvBm1W/zKzEam3a4k0ITlNiP5CfmLsSJdignZS4nhpITL0oU5tVejJO85N/N4cRQcwK1xMyoKNGN+JzkOz3GTQ2HIlck5nBiqDnZx45zpjIrN0YnFdF12jCWG6nkUXbiTiqJcPL0CKLkUr686sNGH5MT8eSGPSl5T1ivHe+3fIt4PHQi18OnlYQ7yUOU2FdKSrxIjNcJPLkQT/ow60ptWHMtvbMHG+q4YejE2uh0Or12xNe0ppWEO0nBbl9OKXOG3uN10mNPevikXfFGJxxZdW8DJpfnxNqCTbWIQGnPUBLu5AR6zge1MNldgBNLh9Hs4OPKaHgb+Gp9tAGkeE6wBO2FK5mRN1FO4ACz6TybK3VicrJTB/ogAsuJ1ceR7eG/3Jh/xDueE8vCt7RCv2JW3kTGCaSOc6k0pXasTnxUXNwKU+2x2omvut7bOi4PF5YqwgkUZa0eFiYBQRLl5CEckH6tFCfGgpxUxA5PjUmxPDkG+29F45XGOoS3iTj5iIY6YUpmVhIJJ1hjMyozaS3Kibe2Z90VWwlOnaVKS8QLQ7vYqIsX+jClUoiSoLSJdpJHJ28U5jT64NidjHZ4WOoYHY07gejwKrE17DvayNQsgtMm2gkGim3LT8SnP54aq7cY7R00oIkXWv2aGN4Or7ljATFyshEQJ+5usA4JJ7i74/wjXVF8Hxzv+gSLBa7EBqXR6HbGF3MTTrT5jEQ6Od1W2d/x161YnfCSCgswbzVysxftpD8dKBFZI+VES63DoYInUtMYP1gVr5MLkSM4qN7AEjXWnzuWz0ml7/9rj9DKKu9E22clxbmSmtbYB8fspMTnDjmUd61R38ENvCP1twzvBW1gwaQ++qW4Id1X0Qku8KUWKePfGa8TjI+aZUGx5bs1Fe4El/C8O2s8csDJBl/U+Zb2kiEi6SQPdTYTXWcnvjXW4yc6/s/vW7g8RScuN8Dd1CbXbFvCYl0MLbquqjnRCiaTkova7ZmsXvGsTy5KAN+9YXsvGCd53ZMESzRs0z2xd1yyRvvFPREoikLknPBjshFSpgp6/Gu2G6/tVDY2+N7xoS4CxqPuixN8oa4sRNKJRKRM97jYnezh1uGhAogdWJWJPWWkNjxWAA9gZbe3MCdCSnBNmdH243ZS4pt3xNOeoXmHDzpjb+FOoMlgTB0uzAkrtE1WaF8HzG5WUf/h30YPL2qCm5tef+CtaNu4UqlbOnvhgm/awbV+Sewk9lgB2oIR7N6wR705AiX6d0AhBX4zzlxPXX8BzGz8P/4besDvxZbu4vLMt9WyXBcPUrusoO4y+BB2Rw+VGKzJOdG0t3Ba5/Ppsy0Clsu3e14BE9WSXpNFIHVegaB7BMv8ydPJg0Zyi05c9XYbhuT5J5zUNlx2MHaKX/Dy8FacsOCIVQcfuWlKnafEOS5W4ZS2oZSwBfNinbjxpcok8uezcQrYfn6zcJbhg1qQE7e1iNDwj/t7Rvq8RwFWWvNROTKFY3aycBfesI1PKufHcs6xqPzbiPzwOJy4t6ViOOrBJ7XzqDnHcJLOwWdmNPzT53UCHpiI2zThDTnb+N2xFc+35+BZ987zL+GhIunEddFBq70UC2MMvnz7xFYmxTmUaKP8CQsV5et31pbN3NfvcDB/cr8OQqQk6jovJI/9x/kanD/Juh6Qkzqqsvz5L7DUJu26UeR0E47ob94LCJVEOoELekJCJaFOtGO49UnGnBkqSXXihcrnGQ0o+3UtoU54qDjO9Fql8cJJqhMeKmbuanJZ23iX4Psp8cuwWa0d+K1kv7JlcnKdwMkHTZZAa9+yowTKPrdN8yjBTsQN2tbsf7M8VrKNz3Anv81lj2u54K0N7TXz26CRbTS+X2dMpaOaPykpvOFUJvfrtxfXeGdD5cNVPyH5Lt481vZuDNrcX/aI7gJwk+HR7WObcr+l/fSc7ns3Gq4WKXM8Ct1qsdlMb79Nch+e5vi8m6IgIQiCIAiCIAiCIAiCIAiCIAiCIAiCIAiCIAiCIAiCIAiCIAiCIAhChv8BzcMYGIZGjO4AAAAASUVORK5CYII=;" parent="1" vertex="1">
          <mxGeometry x="538.13" y="691.88" width="109.7" height="73" as="geometry" />
        </mxCell>
        <mxCell id="bpk7fHlp-owrhIttHWPi-250" value="" style="shape=image;verticalLabelPosition=bottom;labelBackgroundColor=default;verticalAlign=top;aspect=fixed;imageAspect=0;image=data:image/png,iVBORw0KGgoAAAANSUhEUgAAARMAAAC3CAMAAAAGjUrGAAABEVBMVEX////90QD+30yqqKgzLCsjGRkgHSv9zgAhGykYCwj/4k0bFinWvET/1QD8/Pzt7e20lhgdEQ/955z+9dZAOTX95Ir/2QD++/AtJSQTAAD93F3+8sovKSv+3Tz93mj/504pJCz91B4nHx1eWVn91yz92jj96qj+++55dnUSEi3nvwmJhob94XwVBQDQz89QS0ri4eF9aCHRrRDyyAS6uLgAAACcmZn9663+9NGQdx795pVBOCxqXTL22EqZhjmHhIOcghxTRia4trZgVDJyXyKsjhlnY2I+NSlpWCReV0zJtFg/O0JLPycsKTi2olLHpRKJch/977z944JRSTu0nkB6ajTixkaLeTfIsEGlkDvrzkjEMEomAAAIoklEQVR4nO2c62LSSBSAkxBICwpSWqAlhQSBttKb1S0VF22tl3XXvVRXV33/B9k5ZyYQLklmMJRizvfDhUBh5ttzmYQkmkYQBEEQBEEQBEEQBEEQBEEQBEEQBEEQBEEQBEEQBEEQBEEQBEEQxN3ltHueOi4sexR3icL+drOZLh6Z+8fLHsodofDyqGlymkcnp8sezh0gf77uGQGq2xQqqWraNG3HceyhlWUPackcbxaZhYx5+ezxVSbnoJP1RAfK6cP1qmk6mUu9fL9c1s/+yUGwpF8te1zLgzUbMHLw7ElZR+6XB9csVIrJjRMsrfbB60fCCLDbuLbN9aQuU56aUFpzV2c+I7puZO/lkuqEFRIsrQ/K9/UxJ4aRUCf5l1hIcpf6uBFwMkimk1dpXkielCeM6G5Cc+f0BFYkuQ9nU0Z0vZVIJ/kupk3mTXkybYB2Ep08rWLaPJ5OG96Kk+ek8Ba7zbtZaSNKbNKcpGAhb+cu789Km3EnqVXi6dxHN0RtvXoUFCQ+J/lf0qvEerM7V2ineG19EGKEtWLPSRHeuxrkchnbbG6fzxskvwXUVkHL5yTzIDDD7hZPzi7fMyvFt6pBsh4dJDq04hV0Ajuuv//hmM2HKkYKD0WQRM3SWE0nhtEYvHfMdFdeyXEa201UkOir6qQNwzbe2+a2dP/pbsOa5ENYuxG4q+nEALLf/zSrktlTOEkzJQfPZCbYWkknbXRiNP5akwwUnjeZv6ODRHz6yjlxDUF2027KNORznjeRxZVjrKITT4nReOFUJfrxPvabx5KTc1fRSXvoBEZuRhnJn8DPewdvpPJG5+Xkx51YY6j9nfq3tYwRg4xZzIcrKWxiC5YrJcBuHE6sfsVjr1Tru7LztGrsLz6qfpvrU2JkzSgnhSoocSRasIcRi5ON8WFsSUqxSvBm1W/zKzEam3a4k0ITlNiP5CfmLsSJdignZS4nhpITL0oU5tVejJO85N/N4cRQcwK1xMyoKNGN+JzkOz3GTQ2HIlck5nBiqDnZx45zpjIrN0YnFdF12jCWG6nkUXbiTiqJcPL0CKLkUr686sNGH5MT8eSGPSl5T1ivHe+3fIt4PHQi18OnlYQ7yUOU2FdKSrxIjNcJPLkQT/ow60ptWHMtvbMHG+q4YejE2uh0Or12xNe0ppWEO0nBbl9OKXOG3uN10mNPevikXfFGJxxZdW8DJpfnxNqCTbWIQGnPUBLu5AR6zge1MNldgBNLh9Hs4OPKaHgb+Gp9tAGkeE6wBO2FK5mRN1FO4ACz6TybK3VicrJTB/ogAsuJ1ceR7eG/3Jh/xDueE8vCt7RCv2JW3kTGCaSOc6k0pXasTnxUXNwKU+2x2omvut7bOi4PF5YqwgkUZa0eFiYBQRLl5CEckH6tFCfGgpxUxA5PjUmxPDkG+29F45XGOoS3iTj5iIY6YUpmVhIJJ1hjMyozaS3Kibe2Z90VWwlOnaVKS8QLQ7vYqIsX+jClUoiSoLSJdpJHJ28U5jT64NidjHZ4WOoYHY07gejwKrE17DvayNQsgtMm2gkGim3LT8SnP54aq7cY7R00oIkXWv2aGN4Or7ljATFyshEQJ+5usA4JJ7i74/wjXVF8Hxzv+gSLBa7EBqXR6HbGF3MTTrT5jEQ6Od1W2d/x161YnfCSCgswbzVysxftpD8dKBFZI+VES63DoYInUtMYP1gVr5MLkSM4qN7AEjXWnzuWz0ml7/9rj9DKKu9E22clxbmSmtbYB8fspMTnDjmUd61R38ENvCP1twzvBW1gwaQ++qW4Id1X0Qku8KUWKePfGa8TjI+aZUGx5bs1Fe4El/C8O2s8csDJBl/U+Zb2kiEi6SQPdTYTXWcnvjXW4yc6/s/vW7g8RScuN8Dd1CbXbFvCYl0MLbquqjnRCiaTkova7ZmsXvGsTy5KAN+9YXsvGCd53ZMESzRs0z2xd1yyRvvFPREoikLknPBjshFSpgp6/Gu2G6/tVDY2+N7xoS4CxqPuixN8oa4sRNKJRKRM97jYnezh1uGhAogdWJWJPWWkNjxWAA9gZbe3MCdCSnBNmdH243ZS4pt3xNOeoXmHDzpjb+FOoMlgTB0uzAkrtE1WaF8HzG5WUf/h30YPL2qCm5tef+CtaNu4UqlbOnvhgm/awbV+Sewk9lgB2oIR7N6wR705AiX6d0AhBX4zzlxPXX8BzGz8P/4besDvxZbu4vLMt9WyXBcPUrusoO4y+BB2Rw+VGKzJOdG0t3Ba5/Ppsy0Clsu3e14BE9WSXpNFIHVegaB7BMv8ydPJg0Zyi05c9XYbhuT5J5zUNlx2MHaKX/Dy8FacsOCIVQcfuWlKnafEOS5W4ZS2oZSwBfNinbjxpcok8uezcQrYfn6zcJbhg1qQE7e1iNDwj/t7Rvq8RwFWWvNROTKFY3aycBfesI1PKufHcs6xqPzbiPzwOJy4t6ViOOrBJ7XzqDnHcJLOwWdmNPzT53UCHpiI2zThDTnb+N2xFc+35+BZ987zL+GhIunEddFBq70UC2MMvnz7xFYmxTmUaKP8CQsV5et31pbN3NfvcDB/cr8OQqQk6jovJI/9x/kanD/Juh6Qkzqqsvz5L7DUJu26UeR0E47ob94LCJVEOoELekJCJaFOtGO49UnGnBkqSXXihcrnGQ0o+3UtoU54qDjO9Fql8cJJqhMeKmbuanJZ23iX4Psp8cuwWa0d+K1kv7JlcnKdwMkHTZZAa9+yowTKPrdN8yjBTsQN2tbsf7M8VrKNz3Anv81lj2u54K0N7TXz26CRbTS+X2dMpaOaPykpvOFUJvfrtxfXeGdD5cNVPyH5Lt481vZuDNrcX/aI7gJwk+HR7WObcr+l/fSc7ns3Gq4WKXM8Ct1qsdlMb79Nch+e5vi8m6IgIQiCIAiCIAiCIAiCIAiCIAiCIAiCIAiCIAiCIAiCIAiCIAiCIAhChv8BzcMYGIZGjO4AAAAASUVORK5CYII=;" parent="1" vertex="1">
          <mxGeometry x="1368.23" y="677.76" width="100.11" height="66.62" as="geometry" />
        </mxCell>
        <mxCell id="bpk7fHlp-owrhIttHWPi-251" value="" style="shape=image;verticalLabelPosition=bottom;labelBackgroundColor=default;verticalAlign=top;aspect=fixed;imageAspect=0;image=data:image/png,iVBORw0KGgoAAAANSUhEUgAAARMAAAC3CAMAAAAGjUrGAAABEVBMVEX////90QD+30yqqKgzLCsjGRkgHSv9zgAhGykYCwj/4k0bFinWvET/1QD8/Pzt7e20lhgdEQ/955z+9dZAOTX95Ir/2QD++/AtJSQTAAD93F3+8sovKSv+3Tz93mj/504pJCz91B4nHx1eWVn91yz92jj96qj+++55dnUSEi3nvwmJhob94XwVBQDQz89QS0ri4eF9aCHRrRDyyAS6uLgAAACcmZn9663+9NGQdx795pVBOCxqXTL22EqZhjmHhIOcghxTRia4trZgVDJyXyKsjhlnY2I+NSlpWCReV0zJtFg/O0JLPycsKTi2olLHpRKJch/977z944JRSTu0nkB6ajTixkaLeTfIsEGlkDvrzkjEMEomAAAIoklEQVR4nO2c62LSSBSAkxBICwpSWqAlhQSBttKb1S0VF22tl3XXvVRXV33/B9k5ZyYQLklmMJRizvfDhUBh5ttzmYQkmkYQBEEQBEEQBEEQBEEQBEEQBEEQBEEQBEEQBEEQBEEQBEEQBEEQxN3ltHueOi4sexR3icL+drOZLh6Z+8fLHsodofDyqGlymkcnp8sezh0gf77uGQGq2xQqqWraNG3HceyhlWUPackcbxaZhYx5+ezxVSbnoJP1RAfK6cP1qmk6mUu9fL9c1s/+yUGwpF8te1zLgzUbMHLw7ElZR+6XB9csVIrJjRMsrfbB60fCCLDbuLbN9aQuU56aUFpzV2c+I7puZO/lkuqEFRIsrQ/K9/UxJ4aRUCf5l1hIcpf6uBFwMkimk1dpXkielCeM6G5Cc+f0BFYkuQ9nU0Z0vZVIJ/kupk3mTXkybYB2Ep08rWLaPJ5OG96Kk+ek8Ba7zbtZaSNKbNKcpGAhb+cu789Km3EnqVXi6dxHN0RtvXoUFCQ+J/lf0qvEerM7V2ineG19EGKEtWLPSRHeuxrkchnbbG6fzxskvwXUVkHL5yTzIDDD7hZPzi7fMyvFt6pBsh4dJDq04hV0Ajuuv//hmM2HKkYKD0WQRM3SWE0nhtEYvHfMdFdeyXEa201UkOir6qQNwzbe2+a2dP/pbsOa5ENYuxG4q+nEALLf/zSrktlTOEkzJQfPZCbYWkknbXRiNP5akwwUnjeZv6ODRHz6yjlxDUF2027KNORznjeRxZVjrKITT4nReOFUJfrxPvabx5KTc1fRSXvoBEZuRhnJn8DPewdvpPJG5+Xkx51YY6j9nfq3tYwRg4xZzIcrKWxiC5YrJcBuHE6sfsVjr1Tru7LztGrsLz6qfpvrU2JkzSgnhSoocSRasIcRi5ON8WFsSUqxSvBm1W/zKzEam3a4k0ITlNiP5CfmLsSJdignZS4nhpITL0oU5tVejJO85N/N4cRQcwK1xMyoKNGN+JzkOz3GTQ2HIlck5nBiqDnZx45zpjIrN0YnFdF12jCWG6nkUXbiTiqJcPL0CKLkUr686sNGH5MT8eSGPSl5T1ivHe+3fIt4PHQi18OnlYQ7yUOU2FdKSrxIjNcJPLkQT/ow60ptWHMtvbMHG+q4YejE2uh0Or12xNe0ppWEO0nBbl9OKXOG3uN10mNPevikXfFGJxxZdW8DJpfnxNqCTbWIQGnPUBLu5AR6zge1MNldgBNLh9Hs4OPKaHgb+Gp9tAGkeE6wBO2FK5mRN1FO4ACz6TybK3VicrJTB/ogAsuJ1ceR7eG/3Jh/xDueE8vCt7RCv2JW3kTGCaSOc6k0pXasTnxUXNwKU+2x2omvut7bOi4PF5YqwgkUZa0eFiYBQRLl5CEckH6tFCfGgpxUxA5PjUmxPDkG+29F45XGOoS3iTj5iIY6YUpmVhIJJ1hjMyozaS3Kibe2Z90VWwlOnaVKS8QLQ7vYqIsX+jClUoiSoLSJdpJHJ28U5jT64NidjHZ4WOoYHY07gejwKrE17DvayNQsgtMm2gkGim3LT8SnP54aq7cY7R00oIkXWv2aGN4Or7ljATFyshEQJ+5usA4JJ7i74/wjXVF8Hxzv+gSLBa7EBqXR6HbGF3MTTrT5jEQ6Od1W2d/x161YnfCSCgswbzVysxftpD8dKBFZI+VES63DoYInUtMYP1gVr5MLkSM4qN7AEjXWnzuWz0ml7/9rj9DKKu9E22clxbmSmtbYB8fspMTnDjmUd61R38ENvCP1twzvBW1gwaQ++qW4Id1X0Qku8KUWKePfGa8TjI+aZUGx5bs1Fe4El/C8O2s8csDJBl/U+Zb2kiEi6SQPdTYTXWcnvjXW4yc6/s/vW7g8RScuN8Dd1CbXbFvCYl0MLbquqjnRCiaTkova7ZmsXvGsTy5KAN+9YXsvGCd53ZMESzRs0z2xd1yyRvvFPREoikLknPBjshFSpgp6/Gu2G6/tVDY2+N7xoS4CxqPuixN8oa4sRNKJRKRM97jYnezh1uGhAogdWJWJPWWkNjxWAA9gZbe3MCdCSnBNmdH243ZS4pt3xNOeoXmHDzpjb+FOoMlgTB0uzAkrtE1WaF8HzG5WUf/h30YPL2qCm5tef+CtaNu4UqlbOnvhgm/awbV+Sewk9lgB2oIR7N6wR705AiX6d0AhBX4zzlxPXX8BzGz8P/4besDvxZbu4vLMt9WyXBcPUrusoO4y+BB2Rw+VGKzJOdG0t3Ba5/Ppsy0Clsu3e14BE9WSXpNFIHVegaB7BMv8ydPJg0Zyi05c9XYbhuT5J5zUNlx2MHaKX/Dy8FacsOCIVQcfuWlKnafEOS5W4ZS2oZSwBfNinbjxpcok8uezcQrYfn6zcJbhg1qQE7e1iNDwj/t7Rvq8RwFWWvNROTKFY3aycBfesI1PKufHcs6xqPzbiPzwOJy4t6ViOOrBJ7XzqDnHcJLOwWdmNPzT53UCHpiI2zThDTnb+N2xFc+35+BZ987zL+GhIunEddFBq70UC2MMvnz7xFYmxTmUaKP8CQsV5et31pbN3NfvcDB/cr8OQqQk6jovJI/9x/kanD/Juh6Qkzqqsvz5L7DUJu26UeR0E47ob94LCJVEOoELekJCJaFOtGO49UnGnBkqSXXihcrnGQ0o+3UtoU54qDjO9Fql8cJJqhMeKmbuanJZ23iX4Psp8cuwWa0d+K1kv7JlcnKdwMkHTZZAa9+yowTKPrdN8yjBTsQN2tbsf7M8VrKNz3Anv81lj2u54K0N7TXz26CRbTS+X2dMpaOaPykpvOFUJvfrtxfXeGdD5cNVPyH5Lt481vZuDNrcX/aI7gJwk+HR7WObcr+l/fSc7ns3Gq4WKXM8Ct1qsdlMb79Nch+e5vi8m6IgIQiCIAiCIAiCIAiCIAiCIAiCIAiCIAiCIAiCIAiCIAiCIAiCIAhChv8BzcMYGIZGjO4AAAAASUVORK5CYII=;" parent="1" vertex="1">
          <mxGeometry x="212.37" y="691.88" width="109.7" height="73" as="geometry" />
        </mxCell>
        <mxCell id="bpk7fHlp-owrhIttHWPi-252" value="" style="shape=image;verticalLabelPosition=bottom;labelBackgroundColor=default;verticalAlign=top;aspect=fixed;imageAspect=0;image=data:image/png,iVBORw0KGgoAAAANSUhEUgAAARMAAAC3CAMAAAAGjUrGAAABEVBMVEX////90QD+30yqqKgzLCsjGRkgHSv9zgAhGykYCwj/4k0bFinWvET/1QD8/Pzt7e20lhgdEQ/955z+9dZAOTX95Ir/2QD++/AtJSQTAAD93F3+8sovKSv+3Tz93mj/504pJCz91B4nHx1eWVn91yz92jj96qj+++55dnUSEi3nvwmJhob94XwVBQDQz89QS0ri4eF9aCHRrRDyyAS6uLgAAACcmZn9663+9NGQdx795pVBOCxqXTL22EqZhjmHhIOcghxTRia4trZgVDJyXyKsjhlnY2I+NSlpWCReV0zJtFg/O0JLPycsKTi2olLHpRKJch/977z944JRSTu0nkB6ajTixkaLeTfIsEGlkDvrzkjEMEomAAAIoklEQVR4nO2c62LSSBSAkxBICwpSWqAlhQSBttKb1S0VF22tl3XXvVRXV33/B9k5ZyYQLklmMJRizvfDhUBh5ttzmYQkmkYQBEEQBEEQBEEQBEEQBEEQBEEQBEEQBEEQBEEQBEEQBEEQBEEQxN3ltHueOi4sexR3icL+drOZLh6Z+8fLHsodofDyqGlymkcnp8sezh0gf77uGQGq2xQqqWraNG3HceyhlWUPackcbxaZhYx5+ezxVSbnoJP1RAfK6cP1qmk6mUu9fL9c1s/+yUGwpF8te1zLgzUbMHLw7ElZR+6XB9csVIrJjRMsrfbB60fCCLDbuLbN9aQuU56aUFpzV2c+I7puZO/lkuqEFRIsrQ/K9/UxJ4aRUCf5l1hIcpf6uBFwMkimk1dpXkielCeM6G5Cc+f0BFYkuQ9nU0Z0vZVIJ/kupk3mTXkybYB2Ep08rWLaPJ5OG96Kk+ek8Ba7zbtZaSNKbNKcpGAhb+cu789Km3EnqVXi6dxHN0RtvXoUFCQ+J/lf0qvEerM7V2ineG19EGKEtWLPSRHeuxrkchnbbG6fzxskvwXUVkHL5yTzIDDD7hZPzi7fMyvFt6pBsh4dJDq04hV0Ajuuv//hmM2HKkYKD0WQRM3SWE0nhtEYvHfMdFdeyXEa201UkOir6qQNwzbe2+a2dP/pbsOa5ENYuxG4q+nEALLf/zSrktlTOEkzJQfPZCbYWkknbXRiNP5akwwUnjeZv6ODRHz6yjlxDUF2027KNORznjeRxZVjrKITT4nReOFUJfrxPvabx5KTc1fRSXvoBEZuRhnJn8DPewdvpPJG5+Xkx51YY6j9nfq3tYwRg4xZzIcrKWxiC5YrJcBuHE6sfsVjr1Tru7LztGrsLz6qfpvrU2JkzSgnhSoocSRasIcRi5ON8WFsSUqxSvBm1W/zKzEam3a4k0ITlNiP5CfmLsSJdignZS4nhpITL0oU5tVejJO85N/N4cRQcwK1xMyoKNGN+JzkOz3GTQ2HIlck5nBiqDnZx45zpjIrN0YnFdF12jCWG6nkUXbiTiqJcPL0CKLkUr686sNGH5MT8eSGPSl5T1ivHe+3fIt4PHQi18OnlYQ7yUOU2FdKSrxIjNcJPLkQT/ow60ptWHMtvbMHG+q4YejE2uh0Or12xNe0ppWEO0nBbl9OKXOG3uN10mNPevikXfFGJxxZdW8DJpfnxNqCTbWIQGnPUBLu5AR6zge1MNldgBNLh9Hs4OPKaHgb+Gp9tAGkeE6wBO2FK5mRN1FO4ACz6TybK3VicrJTB/ogAsuJ1ceR7eG/3Jh/xDueE8vCt7RCv2JW3kTGCaSOc6k0pXasTnxUXNwKU+2x2omvut7bOi4PF5YqwgkUZa0eFiYBQRLl5CEckH6tFCfGgpxUxA5PjUmxPDkG+29F45XGOoS3iTj5iIY6YUpmVhIJJ1hjMyozaS3Kibe2Z90VWwlOnaVKS8QLQ7vYqIsX+jClUoiSoLSJdpJHJ28U5jT64NidjHZ4WOoYHY07gejwKrE17DvayNQsgtMm2gkGim3LT8SnP54aq7cY7R00oIkXWv2aGN4Or7ljATFyshEQJ+5usA4JJ7i74/wjXVF8Hxzv+gSLBa7EBqXR6HbGF3MTTrT5jEQ6Od1W2d/x161YnfCSCgswbzVysxftpD8dKBFZI+VES63DoYInUtMYP1gVr5MLkSM4qN7AEjXWnzuWz0ml7/9rj9DKKu9E22clxbmSmtbYB8fspMTnDjmUd61R38ENvCP1twzvBW1gwaQ++qW4Id1X0Qku8KUWKePfGa8TjI+aZUGx5bs1Fe4El/C8O2s8csDJBl/U+Zb2kiEi6SQPdTYTXWcnvjXW4yc6/s/vW7g8RScuN8Dd1CbXbFvCYl0MLbquqjnRCiaTkova7ZmsXvGsTy5KAN+9YXsvGCd53ZMESzRs0z2xd1yyRvvFPREoikLknPBjshFSpgp6/Gu2G6/tVDY2+N7xoS4CxqPuixN8oa4sRNKJRKRM97jYnezh1uGhAogdWJWJPWWkNjxWAA9gZbe3MCdCSnBNmdH243ZS4pt3xNOeoXmHDzpjb+FOoMlgTB0uzAkrtE1WaF8HzG5WUf/h30YPL2qCm5tef+CtaNu4UqlbOnvhgm/awbV+Sewk9lgB2oIR7N6wR705AiX6d0AhBX4zzlxPXX8BzGz8P/4besDvxZbu4vLMt9WyXBcPUrusoO4y+BB2Rw+VGKzJOdG0t3Ba5/Ppsy0Clsu3e14BE9WSXpNFIHVegaB7BMv8ydPJg0Zyi05c9XYbhuT5J5zUNlx2MHaKX/Dy8FacsOCIVQcfuWlKnafEOS5W4ZS2oZSwBfNinbjxpcok8uezcQrYfn6zcJbhg1qQE7e1iNDwj/t7Rvq8RwFWWvNROTKFY3aycBfesI1PKufHcs6xqPzbiPzwOJy4t6ViOOrBJ7XzqDnHcJLOwWdmNPzT53UCHpiI2zThDTnb+N2xFc+35+BZ987zL+GhIunEddFBq70UC2MMvnz7xFYmxTmUaKP8CQsV5et31pbN3NfvcDB/cr8OQqQk6jovJI/9x/kanD/Juh6Qkzqqsvz5L7DUJu26UeR0E47ob94LCJVEOoELekJCJaFOtGO49UnGnBkqSXXihcrnGQ0o+3UtoU54qDjO9Fql8cJJqhMeKmbuanJZ23iX4Psp8cuwWa0d+K1kv7JlcnKdwMkHTZZAa9+yowTKPrdN8yjBTsQN2tbsf7M8VrKNz3Anv81lj2u54K0N7TXz26CRbTS+X2dMpaOaPykpvOFUJvfrtxfXeGdD5cNVPyH5Lt481vZuDNrcX/aI7gJwk+HR7WObcr+l/fSc7ns3Gq4WKXM8Ct1qsdlMb79Nch+e5vi8m6IgIQiCIAiCIAiCIAiCIAiCIAiCIAiCIAiCIAiCIAiCIAiCIAiCIAhChv8BzcMYGIZGjO4AAAAASUVORK5CYII=;" parent="1" vertex="1">
          <mxGeometry x="990" y="673.62" width="92.93" height="61.85" as="geometry" />
        </mxCell>
        <mxCell id="xVDLb6yWL96_IEARFfaq-1" value="" style="verticalLabelPosition=bottom;verticalAlign=top;html=1;shadow=0;dashed=0;strokeWidth=1;shape=mxgraph.android.phone2;strokeColor=#d79b00;fillColor=#000000;" parent="1" vertex="1">
          <mxGeometry x="803.99" y="880" width="280" height="580" as="geometry" />
        </mxCell>
        <mxCell id="p2bWCClHKHMW2YDmI7p3-2" value="" style="endArrow=classic;html=1;rounded=0;" parent="1" edge="1">
          <mxGeometry width="50" height="50" relative="1" as="geometry">
            <mxPoint x="777" y="479.38" as="sourcePoint" />
            <mxPoint x="840" y="430" as="targetPoint" />
            <Array as="points" />
          </mxGeometry>
        </mxCell>
        <mxCell id="p2bWCClHKHMW2YDmI7p3-3" value="&lt;div style=&quot;&quot;&gt;&lt;span style=&quot;background-color: initial;&quot;&gt;tem certeza&lt;/span&gt;&lt;br&gt;&lt;/div&gt;" style="rounded=0;whiteSpace=wrap;html=1;" parent="1" vertex="1">
          <mxGeometry x="845.12" y="400" width="114.88" height="100" as="geometry" />
        </mxCell>
        <mxCell id="p2bWCClHKHMW2YDmI7p3-4" value="sim" style="text;html=1;align=center;verticalAlign=middle;whiteSpace=wrap;rounded=0;fillColor=#d5e8d4;strokeColor=#82b366;" parent="1" vertex="1">
          <mxGeometry x="847.49" y="467.84" width="52.51" height="30" as="geometry" />
        </mxCell>
        <mxCell id="p2bWCClHKHMW2YDmI7p3-5" value="nÃ£o" style="text;html=1;align=center;verticalAlign=middle;whiteSpace=wrap;rounded=0;fillColor=#f8cecc;strokeColor=#b85450;" parent="1" vertex="1">
          <mxGeometry x="910" y="467.84" width="50" height="30" as="geometry" />
        </mxCell>
        <mxCell id="p2bWCClHKHMW2YDmI7p3-7" style="edgeStyle=orthogonalEdgeStyle;rounded=0;orthogonalLoop=1;jettySize=auto;html=1;entryX=0.5;entryY=1;entryDx=0;entryDy=0;" parent="1" source="p2bWCClHKHMW2YDmI7p3-6" target="p2bWCClHKHMW2YDmI7p3-3" edge="1">
          <mxGeometry relative="1" as="geometry">
            <Array as="points">
              <mxPoint x="1147" y="790" />
              <mxPoint x="903" y="790" />
            </Array>
          </mxGeometry>
        </mxCell>
        <mxCell id="p2bWCClHKHMW2YDmI7p3-6" value="&lt;p style=&quot;line-height: 130%;&quot;&gt;salvar&lt;/p&gt;" style="text;html=1;align=center;verticalAlign=middle;whiteSpace=wrap;rounded=0;fillColor=#d5e8d4;strokeColor=#82b366;fontStyle=1;spacingTop=5;" parent="1" vertex="1">
          <mxGeometry x="1091.61" y="689.23" width="110" height="30.62" as="geometry" />
        </mxCell>
      </root>
    </mxGraphModel>
  </diagram>
</mxfile>
